<svg width="75" height="75" viewBox="0 0 75 75" fill="none" xmlns="http://www.w3.org/2000/svg">
<g clip-path="url(#clip0_1326_3344)">
<path d="M39.4612 0.865723H44.2919V8.53402C53.4005 8.58514 62.5172 8.43995 71.6169 8.57628C73.5766 8.38883 75.1103 9.91363 74.9146 11.8733C75.0591 27.7893 74.8806 43.7134 74.9998 59.6382C74.9146 61.3594 75.1703 63.2679 74.1819 64.7927C72.9379 65.6959 71.3191 65.5766 69.8617 65.6447C61.3414 65.6025 52.8211 65.6195 44.2919 65.6195V74.1398H38.993C26.008 71.7712 12.9971 69.607 0.00393828 67.3236C-0.00492285 47.446 0.00393828 27.5677 0.00393828 7.69834C13.1498 5.42444 26.297 3.10691 39.4612 0.865723Z" fill="#D24625"/>
<path d="M44.2922 11.0898H72.4092V63.0638H44.2922V56.2476H64.7409V52.8394H44.2922V48.5793H64.7409V45.1712H44.301C44.2922 43.5012 44.2922 41.8312 44.2847 40.1612C47.6587 41.2089 51.501 41.1836 54.5172 39.1551C57.7809 37.2213 59.4849 33.5317 59.7658 29.8509C56.0257 29.825 52.2849 29.8339 48.553 29.8339C48.5448 26.1272 48.5953 22.4212 48.4767 18.7234C47.0793 18.996 45.682 19.2857 44.2928 19.5836V11.0898H44.2922Z" fill="white"/>
<path d="M50.2652 16.9434C56.1872 17.216 61.1624 22.2001 61.478 28.105C57.7372 28.1479 53.9971 28.1309 50.2564 28.1309C50.2564 24.399 50.2482 20.6671 50.2652 16.9434Z" fill="#D24625"/>
<path d="M13.6698 23.3765C18.2967 23.598 23.9031 21.5443 27.7372 25.0124C31.4098 29.4689 30.4385 37.6647 24.9937 40.3326C23.0599 41.3203 20.8446 41.1847 18.7397 41.1158C18.7309 44.4476 18.7234 47.7787 18.7309 51.1105C17.0413 50.9637 15.3513 50.8217 13.6609 50.6845C13.5846 41.5841 13.5682 32.4762 13.6698 23.3765V23.3765Z" fill="white"/>
<path d="M18.731 27.9864C20.4099 27.9093 22.4888 27.6033 23.6224 29.1792C24.5937 30.8492 24.5426 33.0474 23.7328 34.7685C22.7615 36.5237 20.5633 36.3533 18.8674 36.5578C18.6881 33.7032 18.7058 30.8485 18.731 27.9864Z" fill="#D24625"/>
</g>
<defs>
<clipPath id="clip0_1326_3344">
<rect width="75" height="75" fill="white"/>
</clipPath>
</defs>
</svg>
