<svg width="75" height="75" viewBox="0 0 75 75" fill="none" xmlns="http://www.w3.org/2000/svg">
<g clip-path="url(#clip0_1326_3350)">
<path d="M39.1968 0.865723H44.2919V7.68198C53.4087 7.73311 62.5172 7.58792 71.6258 7.73311C73.5684 7.5368 75.0932 9.04524 74.9146 10.9879C75.0591 27.7729 74.8806 44.5661 74.9998 61.3512C74.9146 63.0723 75.1703 64.9808 74.173 66.5056C72.9291 67.3917 71.3184 67.2813 69.8706 67.3488C61.3407 67.3072 52.8204 67.3243 44.2919 67.3243V74.1405H38.967C25.9998 71.7719 12.9971 69.5995 0.00393828 67.3243C-0.00492285 47.4467 0.00393828 27.5684 0.00393828 7.69902C13.0646 5.41558 26.1354 3.19211 39.1974 0.865723H39.1968Z" fill="#2A5699"/>
<path d="M44.292 10.2378H72.409V64.7679H44.292V57.9516H66.4448V54.5435H44.292V50.2833H66.4448V46.8752H44.292V42.615H66.4448V39.2069H44.292V34.9467H66.4448V31.5386H44.292V27.2784H66.4448V23.8703H44.292V19.6102H66.4448V16.202H44.292V10.2378ZM17.6063 25.2929C19.2252 25.1995 20.844 25.1313 22.4629 25.0461C23.5957 30.7977 24.7545 36.5397 25.9814 42.2654C26.9446 36.3523 28.0099 30.4562 29.0399 24.5519C30.744 24.4926 32.448 24.3986 34.1439 24.2963C32.2183 32.5522 30.5313 40.8769 28.4264 49.0816C27.0032 49.8232 24.8731 49.0475 23.1861 49.1668C22.0525 43.527 20.7322 37.92 19.718 32.2543C18.7214 37.7584 17.4263 43.2115 16.2846 48.6822C14.6487 48.597 13.0046 48.4947 11.3592 48.3836C9.94549 40.8857 8.28369 33.439 6.96338 25.9241C8.42001 25.8559 9.88551 25.7959 11.3428 25.7448C12.2201 31.1719 13.2173 36.5745 13.9841 42.0097C15.1872 36.4381 16.4134 30.8658 17.6063 25.2929V25.2929Z" fill="white"/>
</g>
<defs>
<clipPath id="clip0_1326_3350">
<rect width="75" height="75" fill="white"/>
</clipPath>
</defs>
</svg>
