<svg width="75" height="75" viewBox="0 0 75 75" fill="none" xmlns="http://www.w3.org/2000/svg">
<path d="M14.7422 0C12.671 0 10.9922 1.67886 10.9922 3.75V71.25C10.9922 73.3211 12.671 75 14.7422 75H69.7422C71.8134 75 73.4922 73.3211 73.4922 71.25V12.5L60.9923 0H14.7422Z" fill="#ECEDEF"/>
<path d="M64.7422 12.5H73.4921L60.9922 0V8.74995C60.9922 10.8211 62.671 12.5 64.7422 12.5Z" fill="#D9DCDF"/>
<path d="M58.4922 6.25H10.9922V28.75H58.4922C59.1826 28.75 59.7422 28.1903 59.7422 27.5V7.49995C59.7422 6.80957 59.1825 6.25 58.4922 6.25Z" fill="#C6CACF"/>
<path d="M55.9925 26.25H2.76033C1.64675 26.25 1.08894 24.9037 1.87644 24.1162L10.9925 15L1.87644 5.88384C1.08894 5.09634 1.64675 3.75 2.76033 3.75H55.9925C56.6828 3.75 57.2424 4.30972 57.2424 4.99995V24.9999C57.2425 25.6903 56.6828 26.25 55.9925 26.25Z" fill="#FFC44F"/>
<path d="M28.4922 18.75H24.911L29.4524 13.3003C29.7628 12.9277 29.8299 12.4091 29.6242 11.9698C29.4184 11.5307 28.9772 11.25 28.4922 11.25H22.2422C21.5518 11.25 20.9922 11.8097 20.9922 12.5C20.9922 13.1902 21.5519 13.7499 22.2422 13.7499H25.8234L21.2819 19.1996C20.9715 19.5722 20.9045 20.0908 21.1101 20.5301C21.3159 20.9692 21.7571 21.2499 22.2422 21.2499H28.4922C29.1826 21.2499 29.7422 20.6902 29.7422 20C29.7422 19.3097 29.1824 18.75 28.4922 18.75Z" fill="white"/>
<path d="M32.2421 11.25C31.5518 11.25 30.9922 11.8097 30.9922 12.5V20C30.9922 20.6903 31.5519 21.2499 32.2421 21.2499C32.9325 21.2499 33.4921 20.6902 33.4921 20V12.5C33.4921 11.8097 32.9324 11.25 32.2421 11.25Z" fill="white"/>
<path d="M40.9921 11.25H35.9921C35.3018 11.25 34.7422 11.8097 34.7422 12.5V20C34.7422 20.6903 35.3019 21.2499 35.9921 21.2499C36.6825 21.2499 37.2421 20.6902 37.2421 20V17.4999H40.9921C41.6825 17.4999 42.242 16.9402 42.242 16.25V12.5C42.2422 11.8097 41.6825 11.25 40.9921 11.25ZM39.7421 15H37.2421V13.75H39.7421V15Z" fill="white"/>
<path d="M60.9916 48.7498C60.7093 48.7498 60.4257 48.6547 60.192 48.46L52.692 42.21C52.407 41.9725 52.2422 41.6207 52.2422 41.2496C52.2422 40.8786 52.407 40.5269 52.692 40.2893L60.192 34.0392C60.7223 33.5973 61.5105 33.6691 61.9525 34.1992C62.3946 34.7296 62.3228 35.5178 61.7925 35.9598L55.4448 41.2498L61.7924 46.5395C62.3228 46.9816 62.3946 47.7696 61.9523 48.3001C61.7054 48.5967 61.3497 48.7498 60.9916 48.7498Z" fill="#A1A7AF"/>
<path d="M45.9926 46.2499C45.3022 46.2499 44.7427 45.6902 44.7427 45V41.25C44.7427 40.5596 45.3024 40 45.9926 40C46.6829 40 47.2426 40.5597 47.2426 41.25V45C47.2426 45.6903 46.6829 46.2499 45.9926 46.2499Z" fill="#55606E"/>
<path d="M53.4927 40H50.9926V37.5C50.9926 36.8096 50.4329 36.25 49.7427 36.25C49.0523 36.25 48.4927 36.8097 48.4927 37.5V40H43.4928V37.5C43.4928 36.8096 42.9331 36.25 42.2428 36.25C41.5526 36.25 40.9929 36.8097 40.9929 37.5V40H35.9929V37.5C35.9929 36.8096 35.4332 36.25 34.743 36.25C34.0526 36.25 33.493 36.8097 33.493 37.5V40H28.4931V37.5C28.4931 36.8096 27.9333 36.25 27.2431 36.25C26.5527 36.25 25.9932 36.8097 25.9932 37.5V40H23.4931C22.8027 40 22.2432 40.5597 22.2432 41.25C22.2432 41.9403 22.8029 42.4999 23.4931 42.4999H29.7432V45C29.7432 45.6903 30.3029 46.2499 30.9931 46.2499C31.6835 46.2499 32.2431 45.6902 32.2431 45V42.4999H37.243V45C37.243 45.6903 37.8027 46.2499 38.493 46.2499C39.1832 46.2499 39.7429 45.6902 39.7429 45V42.4999H53.493C54.1833 42.4999 54.7429 41.9402 54.7429 41.25C54.7426 40.5596 54.1829 40 53.4927 40Z" fill="#55606E"/>
<path d="M53.4927 51.1718C52.8454 51.1718 52.3208 50.6471 52.3208 50V41.25C52.3208 40.6028 52.8454 40.0781 53.4927 40.0781C54.14 40.0781 54.6646 40.6028 54.6646 41.25V50C54.6646 50.6471 54.14 51.1718 53.4927 51.1718Z" fill="#55606E"/>
<path d="M48.8583 53.3841L52.6083 49.6341C53.0963 49.146 53.8879 49.146 54.376 49.6341L58.126 53.3841C58.3604 53.6185 58.4921 53.9365 58.4921 54.268V67.5002C58.4921 68.1906 57.9324 68.7502 57.2421 68.7502H49.7421C49.0518 68.7502 48.4922 68.1905 48.4922 67.5002V54.268C48.4922 53.9365 48.6239 53.6185 48.8583 53.3841Z" fill="#F79F4D"/>
<path d="M49.7427 67.4999V54.2676L53.4927 50.5176L57.2427 54.2676V67.4999H49.7427Z" fill="#FFC44F"/>
<path d="M53.4922 66.1719C52.8449 66.1719 52.3203 65.6472 52.3203 65.0001V62.5C52.3203 61.8528 52.8449 61.3281 53.4922 61.3281C54.1395 61.3281 54.6641 61.8528 54.6641 62.5V65.0001C54.6641 65.6472 54.1395 66.1719 53.4922 66.1719Z" fill="#BF722A"/>
<path d="M53.4922 58.6719C52.8449 58.6719 52.3203 58.1472 52.3203 57.5V55C52.3203 54.3528 52.8449 53.8281 53.4922 53.8281C54.1395 53.8281 54.6641 54.3528 54.6641 55V57.5C54.6641 58.1472 54.1395 58.6719 53.4922 58.6719Z" fill="#BF722A"/>
</svg>
