<svg width="82" height="53" viewBox="0 0 82 53" fill="none" xmlns="http://www.w3.org/2000/svg">
<path fill-rule="evenodd" clip-rule="evenodd" d="M24.0577 51.5219V45.2327L27.4221 44.6191L27.4343 50.4738C26.3111 50.5897 24.8615 51.0431 24.0578 51.5218L24.0577 51.5219ZM16.4606 47.8534C18.5486 47.6376 21.5622 46.3569 23.6357 45.7568V51.5219L17.9639 49.1314C16.1405 48.2251 17.5455 49.6921 16.4606 47.8534ZM1.68827 43.1363C2.70454 43.2414 10.4702 46.1664 11.818 47.329L1.68827 43.1363ZM16.0385 45.2327L16.1645 45.3889C16.1562 45.3789 15.9967 45.2849 16.0385 45.2327ZM22.7917 41.04C22.7418 43.8171 21.9819 43.7577 16.8828 45.2327C16.958 45.1515 17.0747 44.9 17.1089 44.9894L19.6907 42.9545C20.9345 42.113 21.3592 41.4544 22.7917 41.04ZM0.844231 44.1846L9.98213 47.5126C10.8714 48.1386 10.6191 47.6852 10.9738 48.9016C8.66006 47.5231 2.10019 46.3131 0.844231 44.1847V44.1846ZM23.6358 39.9919H24.48V42.6124H23.6358V39.9919ZM35.4536 41.5642C36.7371 41.4317 42.0653 39.5309 43.0508 38.9439V44.1847C41.8742 44.1522 36.691 42.5391 35.4536 41.5642ZM24.9021 41.0401C25.3514 40.4819 27.1965 41.8126 25.6079 41.3167C25.594 41.3125 25.4579 41.2673 25.4362 41.2596C25.3847 41.2412 24.1703 41.9485 24.9021 41.0401ZM43.4728 38.9439C44.4786 38.6525 45.5953 38.3911 46.4272 37.8956V43.6606C45.4337 43.9481 45.1807 44.1491 43.895 44.1847C43.895 41.3961 43.5245 41.2695 43.4728 38.9439ZM3.37654 43.1365C4.27837 41.6081 10.2296 38.7413 12.0944 37.6775C14.477 36.3185 14.447 37.2599 17.0603 38.198C18.8 38.8226 20.8137 39.831 22.3696 39.9919C22.294 40.0736 22.1689 40.0655 22.1321 40.2208L13.8001 46.154C11.3772 47.4061 7.59828 43.2534 3.37664 43.1365H3.37654ZM25.3239 39.4677L25.45 39.6239C25.4417 39.614 25.2821 39.52 25.3239 39.4677ZM26.5902 38.9439L26.7163 39.0998C26.7078 39.0899 26.5482 38.9958 26.5902 38.9439ZM21.9474 38.9439C22.3961 38.3866 23.5484 39.7755 22.4178 39.2161C22.4081 39.2113 21.2406 39.8214 21.9474 38.9439ZM28.2784 38.4197C28.7271 37.8623 29.8793 39.2514 28.7486 38.6919C28.7389 38.6871 27.5714 39.2975 28.2784 38.4197ZM20.6812 38.4197L20.8072 38.5756C20.7989 38.5656 20.6394 38.4717 20.6812 38.4197ZM29.5446 37.8956C29.9939 37.3376 31.8391 38.668 30.2504 38.1722C29.8677 38.0527 28.8341 38.7777 29.5446 37.8956ZM19.415 37.8956L19.5408 38.0518C19.5326 38.0415 19.3731 37.9476 19.415 37.8956ZM31.2328 37.3714C31.6814 36.8144 32.8338 38.2033 31.703 37.6438C31.6933 37.639 30.5259 38.2494 31.2328 37.3714ZM17.7266 37.3714C18.1753 36.8144 19.3278 38.2033 18.197 37.6438C18.1874 37.639 17.0198 38.2494 17.7266 37.3714ZM62.0577 37.9752L62.0437 32.6545C63.067 32.3584 63.7373 32.1062 64.5762 31.6063V37.3714L62.0578 37.9752H62.0577ZM33.3431 36.8475L33.4692 37.0036C33.4608 36.9937 33.3013 36.8996 33.3431 36.8475ZM19.8371 36.8475C20.004 36.64 22.1826 37.0665 20.6114 37.1337C19.7531 37.1705 19.2542 37.5712 19.8371 36.8475ZM16.4606 36.8475L16.5867 37.0036C16.5782 36.9937 16.4186 36.8996 16.4606 36.8475ZM27.4342 41.0402C28.468 39.2881 36.2317 37.4021 38.3309 36.7288C40.9895 35.8762 39.7693 36.0716 42.2065 36.3234C41.3563 37.7645 36.7062 38.8018 34.943 39.358C32.8914 40.005 29.0344 41.9937 27.4342 41.0402ZM34.6093 36.3234C35.058 35.7663 36.2103 37.1551 35.0795 36.5956C35.0699 36.5908 33.9024 37.2008 34.6093 36.3234ZM21.5253 36.3234C21.6923 36.1159 23.8708 36.5424 22.2997 36.6096C22.2987 36.6097 22.2367 36.6015 22.2313 36.5999C21.8483 36.4806 20.815 37.2051 21.5252 36.3233L21.5253 36.3234ZM15.1944 36.3234L15.3205 36.4795C15.312 36.4693 15.1524 36.3755 15.1944 36.3234ZM36.2977 35.7993L36.4235 35.9555C36.4153 35.9453 36.2557 35.8512 36.2977 35.7993ZM61.1995 33.1786V37.8957C58.9006 37.6582 56.5778 36.0631 54.0243 35.7993C54.1088 35.7262 54.2482 35.5044 54.2902 35.6056L57.3974 34.2224C58.8438 33.7265 59.4568 33.2271 61.1995 33.1786ZM43.0506 35.2751L43.1766 35.4313C43.1683 35.4211 43.0087 35.3273 43.0506 35.2751ZM38.4077 35.2751L38.5338 35.4313C38.5256 35.4211 38.366 35.3273 38.4077 35.2751ZM43.8948 34.7508C44.3441 34.193 46.1893 35.5236 44.6006 35.0278C44.2179 34.9082 43.1843 35.6333 43.8948 34.7508ZM39.252 34.7508C39.7006 34.1942 40.853 35.5829 39.7221 35.0235C39.7125 35.0186 38.5452 35.6287 39.252 34.7508ZM40.9402 34.2271C41.3889 33.67 42.5412 35.0588 41.4103 34.4993C41.4008 34.4945 40.2334 35.1048 40.9402 34.2271ZM27.8563 34.2271C28.0232 34.0198 30.2017 34.4461 28.6306 34.5133C28.6295 34.5134 28.5676 34.5052 28.5621 34.5036C28.1793 34.3839 27.1458 35.1088 27.8563 34.227V34.2271ZM18.5708 35.7994C19.1535 35.3401 21.4684 34.2271 24.4797 34.2271L23.9472 34.614C23.8644 34.6606 23.4864 34.8854 23.3659 34.9417C21.6962 35.7202 20.0443 36.1868 18.5707 35.7993L18.5708 35.7994ZM43.0505 33.7029L43.1765 33.8591C43.1682 33.8488 43.0086 33.7552 43.0505 33.7029ZM45.583 32.6546C46.0315 32.0975 47.1839 33.4863 46.0531 32.9271C46.0434 32.9223 44.876 33.5326 45.583 32.6546ZM28.7003 32.6546C28.7003 31.3141 29.3684 32.5705 28.9512 32.6546C28.9462 32.6558 28.7003 34.1177 28.7003 32.6546ZM29.9665 32.1307C29.8225 31.186 30.4601 30.2282 30.2384 31.7928C30.2191 31.9282 30.2353 33.893 29.9665 32.1307ZM48.9594 31.6064C49.4081 31.0494 50.5604 32.4384 49.4295 31.8789C49.4199 31.8741 48.2524 32.4843 48.9594 31.6064ZM78.5039 32.1307V26.8894C79.6437 26.7717 79.6522 26.6438 80.6144 26.3654V31.6063C79.8125 31.6892 79.1363 31.8258 78.5039 32.1305V32.1307ZM50.6477 31.0823L50.7737 31.2386C50.7654 31.2284 50.6057 31.1345 50.6477 31.0823ZM37.9858 31.0823L40.0961 30.5582C41.1331 31.4779 39.8637 31.6064 37.9858 31.6064V31.0823ZM46.8492 33.7029C49.2873 33.6355 56.8679 30.0344 59.5111 30.0344C60.1282 30.0344 60.1302 30.6803 60.3552 31.0823C58.0893 31.3164 55.4806 32.5868 53.2701 33.2904C47.0001 35.2861 47.3791 36.1675 46.8492 33.7027V33.7029ZM52.758 30.5582L52.8841 30.7145C52.8758 30.7043 52.7162 30.6104 52.758 30.5582ZM53.6022 30.0342C54.0508 29.4771 55.2032 30.8659 54.0724 30.3064C54.0627 30.3015 52.8953 30.9119 53.6022 30.0342ZM77.66 27.4136V32.1307C75.5718 31.9149 72.5585 30.6339 70.4847 30.0342L73.9462 28.567C75.328 28.1062 76.372 27.7861 77.6599 27.4136H77.66ZM55.2904 29.51L55.4165 29.6663C55.4082 29.6561 55.2486 29.5622 55.2904 29.51ZM41.7844 29.51L41.9102 29.6663C41.902 29.6561 41.7424 29.5622 41.7844 29.51ZM37.5638 29.51C38.0131 28.9521 39.8583 30.2824 38.2696 29.7866C38.2557 29.7824 38.1197 29.7372 38.0979 29.7295C38.0466 29.7114 36.8323 30.4184 37.5638 29.51ZM61.6215 28.986C62.0702 28.4287 63.2225 29.8177 62.0916 29.2582C62.0821 29.2534 60.9147 29.8634 61.6215 28.986ZM56.9789 28.986C57.4274 28.4287 58.5798 29.8177 57.449 29.2582C57.4393 29.2534 56.2719 29.8634 56.9789 28.986ZM62.8877 28.4618L63.0138 28.6181C63.0055 28.6077 62.8459 28.5138 62.8877 28.4618ZM58.6672 28.4618C59.1158 27.9044 60.2681 29.2935 59.1373 28.734C59.1276 28.7292 57.9602 29.3396 58.6672 28.4618ZM43.0507 27.4136V28.986H41.7845C42.1132 27.4576 41.7883 27.7889 43.0507 27.4136ZM40.9403 28.4618L41.0664 28.6181C41.0579 28.6077 40.8983 28.5138 40.9403 28.4618ZM34.1874 28.4618C34.2091 28.3874 36.0329 27.3495 34.6898 28.4104C34.6859 28.4137 33.7609 29.9196 34.1874 28.4618ZM28.2784 26.8894H29.1226V30.5582C28.5343 29.5071 29.1494 31.5971 28.536 29.1902C28.2095 27.9089 28.3118 28.394 28.2784 26.8894ZM48.1154 27.9377C48.564 27.3807 49.7166 28.7693 48.5858 28.2102C48.5761 28.2052 47.4086 28.8155 48.1154 27.9377ZM35.4535 27.9377L35.5795 28.0939C35.5712 28.0836 35.4116 27.9896 35.4535 27.9377ZM29.5446 30.0342V26.8894L32.4797 25.7679C32.4992 28.3568 32.8455 27.4718 31.8613 28.7181C31.2868 29.446 30.3702 29.7953 29.5446 30.0344V30.0342ZM61.6216 27.4136C62.0703 26.8565 63.2226 28.2455 62.0917 27.686C62.0822 27.6812 60.9148 28.2915 61.6216 27.4136ZM49.8037 27.4136C50.2523 26.8565 51.4048 28.2455 50.2741 27.686C50.2644 27.6812 49.0969 28.2915 49.8037 27.4136ZM63.3098 26.8894C63.7585 26.3324 64.9108 27.7213 63.78 27.1619C63.7703 27.1571 62.6029 27.7671 63.3098 26.8894ZM51.492 26.8894L51.6179 27.0456C51.6096 27.0357 51.4501 26.9417 51.492 26.8894ZM33.3431 25.3173H35.0314V27.4137H33.3431V25.3173ZM35.4535 24.7932C36.7504 25.973 36.1345 24.4556 36.2977 26.8894H35.4535V24.7932ZM22.7916 25.3173L26.8453 26.5726C27.7815 27.1633 27.5017 26.7213 27.8563 27.9378C26.3939 28.688 24.8752 27.1047 22.7916 26.8895V25.3174V25.3173ZM66.6863 25.8414C67.1349 25.2844 68.2873 26.6731 67.1565 26.1136C67.1468 26.109 65.9794 26.7192 66.6863 25.8414ZM54.4464 25.8414C54.6133 25.6341 56.792 26.0602 55.2209 26.1276L54.9807 26.0609C54.9294 26.0425 53.7149 26.7498 54.4464 25.8414ZM47.6934 27.4137C48.1241 26.0884 47.5432 26.9932 48.5018 26.3213C49.0466 25.9393 49.1109 26.0418 49.8036 25.8415C48.7603 27.6099 49.3477 26.3954 47.6934 27.4138V27.4137ZM43.4726 25.8414L43.5987 25.9976C43.5904 25.9873 43.4308 25.8933 43.4726 25.8414ZM68.3746 25.3173L68.5005 25.4734C68.4922 25.4635 68.3326 25.3694 68.3746 25.3173ZM59.089 24.2691C59.089 21.1814 58.9745 21.5823 60.3553 21.1243C59.3439 23.498 59.6637 23.268 59.5373 25.5817C59.5349 25.6249 59.5412 25.7624 59.5112 25.8414C59.2219 25.2018 59.089 25.2808 59.089 24.2691ZM11.8179 48.9018V47.8539C20.2355 45.4185 29.4603 41.8293 37.8192 39.2611L81.4586 24.7932C81.1136 25.1653 81.3189 25.0774 80.7129 25.4394C80.1444 25.779 80.5903 25.5662 79.7915 25.8677L46.9355 36.9548C38.1104 39.9405 20.4777 46.3965 11.8178 48.9019L11.8179 48.9018ZM64.5761 27.9378C68.6345 27.5185 71.3447 24.7932 77.238 24.7932L67.5235 28.5078C65.9617 29.0139 65.5556 29.5983 64.5761 27.9377V27.9378ZM70.0629 24.7932L70.1887 24.9493C70.1805 24.9393 70.0208 24.8452 70.0629 24.7932ZM57.8228 24.7932C58.2715 24.2361 59.424 25.6249 58.293 25.0656C58.2835 25.0608 57.1159 25.6708 57.8228 24.7932ZM51.4919 25.3173C52.7337 24.9579 52.7801 24.7932 54.4463 24.7932C52.3246 26.624 51.7937 25.5637 51.4919 25.3173ZM32.0769 24.7932L32.203 24.9493C32.1946 24.9393 32.0351 24.8452 32.0769 24.7932ZM71.3291 24.2691C71.7777 23.7119 72.9301 25.1008 71.7992 24.5413C71.7896 24.5365 70.6223 25.1467 71.3291 24.2691ZM33.3431 24.2691C33.7918 23.7119 34.9441 25.1008 33.8133 24.5413C33.8038 24.5365 32.6362 25.1467 33.3431 24.2691ZM65.8421 23.7448L65.9681 23.9013C65.9598 23.8911 65.8003 23.797 65.8421 23.7448ZM63.7318 23.7448C63.7318 22.4044 64.4001 23.6607 63.9827 23.7448C63.9777 23.746 63.7318 25.2082 63.7318 23.7448ZM58.245 23.2207V24.2691H56.9788C57.6441 23.0801 57.0583 23.6566 58.245 23.2207ZM35.4534 20.0763H35.8755V24.2691H35.4534V20.0763ZM80.6145 21.6484H81.0365V23.7448H80.6145V21.6484ZM74.7055 23.2207L74.8316 23.377C74.8232 23.367 74.6635 23.2729 74.7055 23.2207ZM55.2905 23.2207L55.4166 23.377C55.4082 23.367 55.2487 23.2729 55.2905 23.2207ZM53.1802 23.2207L53.3062 23.377C53.2979 23.367 53.1383 23.2729 53.1802 23.2207ZM76.3938 22.6967L76.5198 22.853C76.5115 22.8427 76.352 22.7487 76.3938 22.6967ZM33.3431 21.1243H34.1874V23.2207H33.3431V21.1243ZM67.9526 22.1726L68.0786 22.3288C68.0701 22.3186 67.9105 22.2247 67.9526 22.1726ZM32.0769 21.6484L31.4962 23.4178L29.9667 22.6967C30.8651 21.1741 29.9078 21.7085 32.077 21.6484H32.0769ZM28.2784 24.7932C25.8592 24.7932 25.2599 23.9565 23.2137 23.7448C23.2137 19.8589 23.5869 20.2997 24.5505 20.4331C25.9018 20.6201 27.0456 21.4776 28.7005 21.6484C28.4687 22.8836 28.3139 23.1968 28.2784 24.7932ZM62.0436 21.1243L62.1696 21.2806C62.1613 21.2704 62.0016 21.1765 62.0436 21.1243ZM73.8614 20.0763C74.31 19.5192 75.4624 20.9079 74.3316 20.3485C74.3219 20.3437 73.1544 20.954 73.8614 20.0763ZM66.6863 20.0763L66.8123 20.2325C66.804 20.2223 66.6444 20.1284 66.6863 20.0763ZM63.9217 22.2512C63.7801 19.4792 63.3497 20.6678 64.5761 19.5521L63.9217 22.2512ZM68.3229 20.5799C68.319 20.4953 68.2163 20.2243 68.2036 20.29L68.3229 20.5799ZM77.6601 18.5039L75.9717 15.8834C77.6303 15.8376 76.9618 16.0268 78.0821 15.3592V1.7326C70.4878 -0.464638 70.9734 -0.650782 63.2253 1.62783C58.1627 3.1165 53.3982 4.14119 48.2816 5.60777C45.7431 6.3353 30.6427 9.80458 29.6678 10.7957C28.8038 11.6737 29.1022 12.1942 27.5482 13.9285C26.8185 14.7426 27.1963 14.4127 26.3478 15.0586L24.6704 16.1201C23.5477 17.0271 23.3399 18.19 23.2137 20.0763C19.1402 18.8978 21.9474 22.0841 21.9474 24.7932V32.1307C20.3346 33.0915 17.5293 33.1604 16.1072 34.3125L5.76252 40.3345C3.34445 41.7812 2.89803 42.2982 0 43.1368C0.207603 46.2346 1.64429 45.8251 6.38484 47.7869C7.68884 48.3266 9.00684 48.9653 10.1836 49.4073C12.6708 50.3414 12.0428 48.9018 14.3502 48.9018C17.4899 48.9018 20.9827 52.0466 24.0577 52.0466C25.1137 52.0466 26.8313 51.295 27.8564 50.9986V44.185C30.3546 43.4624 33.2502 41.7349 35.5049 42.5048C48.6494 46.9933 40.9467 44.8386 47.2715 44.185V37.3716C52.1221 37.2375 48.5196 34.7177 55.9639 37.0588C65.5509 40.074 59.5676 38.457 64.9982 37.8958V31.6064C70.1964 30.1028 68.4079 30.0936 75.0442 32.2403C78.524 33.366 77.5121 33.1502 81.0367 32.1307C81.0367 20.3317 85.2748 21.7192 75.9718 19.028C76.5113 18.6379 76.045 18.9466 76.6613 18.7592C76.9883 18.6597 76.7395 18.9759 77.6602 18.5038L77.6601 18.5039ZM72.1732 17.9799H75.1276V19.0281C73.9958 19.3644 74.3321 19.5521 73.4393 19.5521C71.9202 19.5521 72.6328 19.0659 72.1731 17.98L72.1732 17.9799ZM70.4849 18.5039L70.6109 18.6601C70.6026 18.6499 70.4431 18.5561 70.4849 18.5039ZM35.4535 16.9314L35.9272 19.0075L35.0314 19.0281C35.0314 18.7362 35.0231 18.1725 35.0595 18.0151C35.292 17.0128 35.1193 17.5037 35.4535 16.9314ZM30.3888 20.0763V19.0281C32.51 19.0281 32.2786 18.5567 34.1875 18.5039L32.5302 19.5907C31.7517 19.8789 31.3104 19.9812 30.3888 20.0763ZM24.0577 17.4557C25.7954 17.6353 27.8783 18.5459 29.5446 19.0281V20.6004C28.1035 20.5602 27.7069 20.3182 26.3024 19.9093C24.1512 19.2833 24.3275 20.0678 24.0576 17.4558L24.0577 17.4557ZM75.9718 17.4557C75.9718 16.1151 76.6402 17.3715 76.2228 17.4557C76.2178 17.4566 75.9718 18.9188 75.9718 17.4557ZM33.3432 15.8834C32.8923 17.2711 34.2113 16.8609 31.655 16.9313C32.083 16.5623 31.5092 16.912 32.4505 16.3471C32.5598 16.2814 33.1395 16.0088 33.3432 15.8834ZM34.6094 15.3592L35.0533 15.4182C35.1872 15.5078 35.77 13.8565 35.3155 15.7211C34.9508 17.2173 36.0571 16.0838 35.1512 15.8063C34.9592 15.7475 34.4289 16.3539 34.6094 15.3591V15.3592ZM27.0123 15.8834C28.4303 13.2537 30.2452 13.0593 32.4992 14.8351C31.114 15.2359 31.1314 15.673 30.098 16.0551C28.6993 16.5722 28.7498 15.9315 27.0123 15.8834ZM29.9667 11.6904C32.9801 11.6904 34.3624 13.1859 37.1418 13.2628L36.7197 26.8894C36.7197 20.9664 35.8757 17.4761 35.8757 13.7869C31.302 13.7869 32.8625 13.562 29.9668 13.2628V11.6904H29.9667ZM77.2381 14.8351L37.5639 26.8894V13.2628C39.2666 13.2157 40.7658 12.5489 42.5235 12.0842C43.8391 11.7365 45.9863 11.1468 47.3555 10.7466C50.7878 9.74398 54.0812 8.99976 57.4009 8.02188C59.7567 7.32783 75.334 2.78069 77.6602 2.78069C77.6602 7.58226 77.2381 10.2968 77.2381 14.8351ZM31.2329 11.1666V10.6424C33.9623 10.6424 68.3555 0.684387 70.063 0.684387L75.9718 2.25671L42.7132 11.2714C32.8268 14.1731 36.3968 11.1666 31.2329 11.1666Z" fill="#003D9A"/>
</svg>
