<svg width="55" height="55" viewBox="0 0 55 55" fill="none" xmlns="http://www.w3.org/2000/svg">
<path d="M40.9419 9.15726C39.3515 6.58152 37.1508 4.43745 34.5344 2.91476C31.0129 0.912316 26.9529 0.0622483 22.9239 0.483762C22.8875 0.488861 22.8522 0.500015 22.8194 0.516762L21.0594 1.52326H18.6669L17.4569 0.549762C17.4083 0.511318 17.3484 0.490044 17.2864 0.489262H14.2999C14.227 0.489262 14.157 0.518235 14.1054 0.569808C14.0539 0.62138 14.0249 0.691328 14.0249 0.764262V5.93426C14.0263 6.00676 14.0557 6.07589 14.107 6.12716C14.1583 6.17843 14.2274 6.20785 14.2999 6.20926H17.2039C17.2504 6.20758 17.2958 6.19435 17.3359 6.17076C19.3324 5.07076 21.6094 5.10376 23.0009 6.29726C23.6359 6.88446 24.0577 7.66612 24.1999 8.51926C24.2116 8.58186 24.2451 8.6383 24.2944 8.67857C24.3437 8.71884 24.4057 8.74034 24.4694 8.73926V27.7748H24.5244C24.3038 27.92 24.1226 28.1175 23.9969 28.3497C23.8712 28.582 23.8049 28.8417 23.8039 29.1058V50.9188C23.8237 51.2148 23.7708 51.5113 23.6499 51.7823L23.0999 52.7008C22.9889 52.8931 22.9304 53.1112 22.9304 53.3333C22.9304 53.5553 22.9889 53.7735 23.0999 53.9658C23.2177 54.1653 23.3859 54.3304 23.5877 54.4443C23.7895 54.5582 24.0177 54.617 24.2494 54.6148H31.0584V29.1058C31.0479 28.6906 30.8813 28.2947 30.5917 27.997C30.3022 27.6993 29.9111 27.5218 29.4964 27.4998V8.79976H30.1454C30.2178 8.79546 30.2871 8.76853 30.3434 8.72276C30.3926 8.66851 30.42 8.598 30.4204 8.52476V5.25776C31.3185 5.20206 32.2199 5.28366 33.0934 5.49976C35.3663 6.10382 37.3447 7.50805 38.6649 9.45426C38.6895 9.49154 38.723 9.52211 38.7624 9.54324C38.8017 9.56436 38.8457 9.57536 38.8904 9.57526H40.6999C40.7487 9.57561 40.7966 9.56242 40.8384 9.53718C40.8801 9.51194 40.914 9.47562 40.9364 9.43226C40.9631 9.39159 40.9778 9.3442 40.9788 9.29555C40.9797 9.24691 40.967 9.19897 40.9419 9.15726ZM14.5419 1.03376H16.9894V5.65376H14.5639L14.5419 1.03376ZM17.5394 5.43376V1.33626L18.3754 2.01276C18.4236 2.05197 18.4838 2.07334 18.5459 2.07326H20.8394V4.85626C19.7138 4.75742 18.5823 4.96056 17.5614 5.44476L17.5394 5.43376ZM30.4864 29.0838V54.0648H24.2824C24.1469 54.0665 24.0132 54.0329 23.8946 53.9673C23.776 53.9018 23.6765 53.8064 23.6059 53.6908C23.5411 53.5808 23.5069 53.4554 23.5069 53.3278C23.5069 53.2001 23.5411 53.0748 23.6059 52.9648L24.1119 52.0518C24.1969 51.8989 24.2634 51.7364 24.3099 51.5678H26.2899V51.0178H24.3924C24.3951 50.9848 24.3951 50.9517 24.3924 50.9188V50.3358H26.2899V49.7858H24.4034V49.1038H26.2899V48.5538H24.4034V47.8498H26.2899V47.2998H24.4034V46.6398H26.2899V46.0898H24.4034V45.4078H26.2899V44.8578H24.4034V44.1703H26.2899V43.6203H24.4034V42.9383H26.2899V42.3883H24.4034V41.7063H26.2899V41.1563H24.4034V40.4743H26.2899V39.9243H24.4034V39.2423H26.2899V38.6923H24.4034V38.0103H26.2899V37.4603H24.4034V36.7728H26.2899V36.2228H24.4034V35.5408H26.2899V34.9908H24.4034V34.3088H26.2899V33.7588H24.4034V33.0768H26.2899V32.5268H24.4034V31.8448H26.2899V31.2948H24.4034V30.6128H26.2899V30.0628H24.4034V29.3808H26.2899V28.8308H24.4419C24.5102 28.6052 24.6492 28.4076 24.8383 28.267C25.0275 28.1264 25.2567 28.0502 25.4924 28.0498H29.4194C29.7018 28.0524 29.9723 28.1634 30.175 28.36C30.3778 28.5566 30.4971 28.8236 30.5084 29.1058L30.4864 29.0838ZM28.9464 27.4998H25.4924C25.3493 27.5025 25.2071 27.5228 25.0689 27.5603V8.74476H28.9464V27.4998ZM39.0499 9.02526C37.6505 7.012 35.5765 5.56627 33.2034 4.94976C32.1876 4.70051 31.138 4.61876 30.0959 4.70776C30.0268 4.7133 29.9624 4.74471 29.9155 4.79569C29.8686 4.84667 29.8427 4.91348 29.8429 4.98276L29.8704 8.24976L24.7114 8.21676C24.5465 7.40844 24.1445 6.66756 23.5567 6.08864C22.969 5.50971 22.2221 5.11897 21.4114 4.96626V1.95776L23.0614 1.02276C26.9569 0.627664 30.8787 1.45624 34.2814 3.39326C36.6664 4.78723 38.6958 6.715 40.2104 9.02526H39.0499Z" fill="#003D9A"/>
</svg>
