<svg width="82" height="32" viewBox="0 0 82 32" fill="none" xmlns="http://www.w3.org/2000/svg">
<path fill-rule="evenodd" clip-rule="evenodd" d="M39.9272 30.3855H42.9323V30.9198H39.9272V30.3855ZM42.5032 28.7832V25.0443C45.2429 24.9682 47.1334 23.4417 50.231 23.4417V26.6466C48.1711 27.2439 44.4402 28.5827 42.5032 28.7832ZM40.7858 25.5783H42.0737V28.7832H41.215C41.1934 27.5719 41.0825 26.4053 40.7856 25.5783H40.7858ZM32.6288 25.5783V23.4417C35.3197 23.5163 37.6657 24.9697 40.3567 25.0443V28.7832C38.8049 28.6227 37.7017 28.0403 36.0988 27.6709C34.5591 27.316 32.6288 27.6068 32.6288 25.5783ZM76.849 20.2367L76.9771 20.3958C76.9686 20.3856 76.8062 20.2895 76.849 20.2367ZM75.9903 20.2367L76.1184 20.3958C76.11 20.3856 75.9476 20.2895 75.9903 20.2367ZM9.44547 17.5661C12.1785 17.6419 28.1149 22.9077 32.1996 22.9077V26.6466C29.9446 26.584 11.9688 21.5023 9.44547 20.7707V17.5658V17.5661ZM50.6605 26.6466V22.9077C53.498 22.614 70.1462 17.3259 72.9852 17.0318V20.2367C72.1353 20.7441 68.7923 21.5682 67.4936 21.9504L50.6605 26.6462V26.6466ZM2.57654 15.9639C5.08229 15.9639 6.27679 16.9681 8.58711 17.0322V20.2371C6.27679 20.173 5.08229 19.1688 2.57654 19.1688V15.9639ZM73.8438 19.7028V16.4978C76.1541 16.4338 77.3486 15.4295 79.8544 15.4295C79.8544 18.8616 79.9059 18.3746 77.5602 18.985C76.2062 19.3373 75.1217 19.6671 73.8438 19.7024V19.7028ZM4.29355 13.8269V14.8952H3.00572C3.68241 13.6835 3.08676 14.2709 4.29355 13.8269ZM78.1368 13.2929C78.8594 13.7388 78.8913 13.7843 79.4246 14.3612C76.7706 14.0799 78.7444 14.1454 78.1368 13.2929ZM17.173 6.88305L17.3012 7.04248C17.2927 7.03192 17.1303 6.93619 17.173 6.88305ZM18.4612 5.28331C19.417 6.44481 18.9462 4.80685 19.3198 7.41702L18.2646 7.51312L18.4612 6.34908C17.3533 5.89191 18.0536 6.95439 18.0171 5.893C17.9788 4.77337 17.9817 5.5938 18.4612 5.28331ZM13.0246 0.473191C12.6536 2.21415 13.3043 1.19353 12.0214 1.89603L10.3021 1.54186L10.7336 1.89857L12.0214 1.72131C13.9473 1.67436 13.0784 1.45269 14.811 2.60981C14.7586 2.6877 14.6524 2.75759 14.6059 2.77543C14.5555 2.79472 14.4338 2.89227 14.3651 2.91156C14.2823 2.93449 14.1545 2.9829 14.055 3.00074L12.0238 2.96397C14.2419 4.21428 13.1486 2.53519 13.2382 4.74643L13.3093 5.28077L14.6252 4.36497C14.6866 4.15604 14.8867 4.2383 15.0245 4.21537C15.0453 4.35332 15.0359 4.54624 15.0368 4.63541L15.0266 6.88341C18.0384 6.88341 16.0452 6.79314 16.3641 7.41775C16.3641 8.64986 16.1315 8.30625 17.173 8.30625L18.0317 7.71586C20.335 9.0204 18.5674 7.69438 19.3195 10.6227C21.5509 10.6227 23.6947 9.78405 26.0003 9.29375C29.7158 8.5039 29.2884 10.0883 32.6285 10.0883V10.6227C28.8665 10.6227 25.2075 12.5613 22.3334 12.2322C20.6027 12.0339 20.3189 11.4176 19.3195 11.2185C19.1958 11.3306 19.0103 11.4726 18.9591 11.5738C18.9272 11.6368 18.9784 11.9971 18.9591 11.929C18.9281 11.8195 19.1958 12.1722 19.3195 12.2843C23.5473 14.4741 30.3524 11.125 35.2045 10.6227C34.2379 8.98109 35.3417 9.9078 33.254 9.3105C32.6259 9.13069 32.2649 9.14343 31.781 9.00657L30.482 8.48606C33.1516 7.71222 37.8629 6.33488 40.3113 6.97914L41.698 6.96167C44.3182 6.19547 49.9785 7.90622 53.5395 8.64258C56.0851 9.16891 74.3336 11.8774 76.1234 13.6616C76.1928 13.7308 76.277 13.8509 76.3437 13.9215L77.2778 14.8956C74.9617 14.8956 45.2982 23.1658 42.5029 23.976C42.4727 23.9079 42.4476 23.699 42.4376 23.7576C42.4341 23.7791 42.3335 23.1097 41.2147 22.3737L40.4275 23.766C40.4161 23.7926 40.3856 23.9098 40.3561 23.9764L14.275 17.4329C12.0176 16.8713 7.69189 15.4299 5.15191 15.4299L6.40289 13.5455C6.41166 13.5113 6.41049 13.3704 6.43975 13.2933H7.8724C8.00756 12.9373 8.17724 11.3649 8.15705 12.7564C6.37012 12.5526 1.10762 13.7002 0 14.3616C0.966606 16.0028 -0.276466 15.2235 1.7173 15.4299V19.1688L3.46562 20.7358C4.37313 21.8882 2.94867 21.8878 5.5416 21.8936C8.28373 21.8998 7.32619 20.9341 10.702 21.8638L38.0487 28.9834C39.7833 30.0128 38.5999 29.1265 39.4974 31.4542H43.3612C44.2623 29.03 42.2018 29.4155 45.843 28.6915C52.7921 27.3102 67.8634 21.9781 73.1628 20.9582C74.5866 20.6841 76.4212 21.3054 78.5654 21.3054C79.4112 19.0305 78.5575 19.9208 80.7119 18.6348C80.7119 12.3622 81.2323 16.8695 82 13.2933L42.5511 5.71137C39.9167 5.17521 21.9455 9.32688 19.319 10.0883V7.41775H20.1776V5.28113C17.3334 4.33621 19.9772 2.37213 18.4852 0.406581C17.7623 -0.54598 14.8206 0.473919 13.0237 0.473919L13.0246 0.473191Z" fill="#003D9A"/>
<path fill-rule="evenodd" clip-rule="evenodd" d="M10.304 14.3612C10.5064 14.1093 12.7372 14.6517 11.0781 14.648C10.2926 14.6462 9.68056 15.1369 10.304 14.3612ZM17.1732 14.3612H15.4559C16.2587 13.7275 14.4972 13.7606 16.3146 13.9204C17.2373 14.0016 16.6911 13.9663 17.1732 14.3612ZM9.44534 13.8269V12.7585C13.7582 12.3119 13.965 10.9211 18.461 12.2242V13.2925C14.908 13.2925 13.0804 13.8265 9.44534 13.8265V13.8269ZM9.87686 8.48821V9.55398C10.0585 9.69812 11.8762 10.3937 9.87481 9.81969C8.85233 9.82224 9.25459 9.59656 9.6592 10.6223C12.896 10.6223 14.57 10.0879 18.0319 10.0879V10.6223C15.6818 10.6223 11.2165 11.4525 9.44534 12.4903L8.43251 10.564C8.3819 10.2761 8.25873 10.239 8.15722 10.0909V12.756C8.1774 11.3648 8.00743 12.9369 7.87256 13.2929C8.44421 14.4919 8.53081 14.5283 9.01616 15.4295C13.085 15.4295 15.5203 14.8952 19.3197 14.8952V12.2835C19.1959 12.1714 18.928 11.8187 18.9593 11.9283C18.9786 11.9963 18.9274 11.636 18.9593 11.573C19.0108 11.4718 19.1959 11.3299 19.3197 11.2178V10.6219C18.5675 7.69326 20.3352 9.01928 18.0319 7.7151C17.6659 8.32333 18.6778 8.88933 17.1732 8.30549C16.1317 8.30549 16.3643 8.6491 16.3643 7.41699H16.3125L14.5838 8.37101C14.5112 8.38593 14.3857 8.38521 14.3117 8.39503L13.4253 8.4409C13.3208 8.45 13.2047 8.46819 13.0929 8.47839L11.9414 8.59668C10.9739 8.62544 10.9549 8.6076 9.87686 8.48821Z" fill="#003D9A"/>
<path fill-rule="evenodd" clip-rule="evenodd" d="M9.44531 5.81493C10.8042 6.44573 10.0611 4.65526 10.304 7.41722C12.6421 7.17516 11.442 6.21423 12.4505 7.95155H9.44502V5.81493H9.44531ZM12.8799 6.88324C13.3363 6.31542 14.5083 7.73098 13.3583 7.1606C13.3483 7.15587 12.1608 7.77793 12.8799 6.88324ZM8.15719 10.0911C8.25841 10.2396 8.38158 10.2764 8.43248 10.5643L9.44531 12.4905L9.65888 10.6225C9.25427 9.59679 8.85201 9.82246 9.87449 9.81991L9.87654 9.5542V8.48844C10.9543 8.60746 10.9736 8.62566 11.9411 8.59691L13.0926 8.47861C13.2044 8.46878 13.3205 8.45058 13.425 8.44112L14.3114 8.39526C14.3854 8.38543 14.5109 8.38616 14.5835 8.37123L16.3122 7.41722H14.1678L15.0264 6.88288L15.0366 4.63488C15.0358 4.54534 15.0451 4.35242 15.0244 4.21483C14.8866 4.23813 14.6865 4.15587 14.625 4.36443L13.3091 5.28023C12.7383 4.86383 12.7009 5.21253 13.238 4.7459C13.1485 2.53466 14.2418 4.21411 12.0236 2.96344L14.0548 3.0002C14.1543 2.982 14.2821 2.93359 14.3649 2.91102C14.4337 2.8921 14.5554 2.79455 14.6057 2.77489C14.6522 2.75706 14.7584 2.68717 14.8108 2.60928C13.0783 1.45215 13.9472 1.67382 12.0213 1.72078C10.7621 3.43517 13.1034 2.3432 11.5067 2.32536C10.3461 2.31263 11.5222 2.75778 10.7334 1.89768L10.3019 1.54097C10.2168 1.49656 7.86112 0.907989 10.4306 1.03611C12.8726 1.15769 11.2173 0.839559 12.0213 1.89549C13.3041 1.19299 12.6535 2.21398 13.0244 0.472657C12.3168 0.472657 11.3937 0.396947 10.7229 0.434074C7.71806 0.599326 8.4752 1.29709 8.17416 3.6987C7.77599 6.87596 8.78823 5.06621 7.29883 5.81421C7.53872 9.40023 8.34676 6.50105 8.58666 10.0874L8.15719 10.09V10.0911Z" fill="#003D9A"/>
<path fill-rule="evenodd" clip-rule="evenodd" d="M19.3199 7.4174C18.9463 4.80723 19.417 6.44518 18.4612 5.28369V6.34945L18.2646 7.51349L19.3199 7.4174Z" fill="#0A3162"/>
<path fill-rule="evenodd" clip-rule="evenodd" d="M40.7859 19.7031C42.041 19.3293 41.4044 19.7719 42.0737 18.6348H40.7859V19.7031Z" fill="#003D9A"/>
<path fill-rule="evenodd" clip-rule="evenodd" d="M20.1787 14.8959C21.4338 14.5221 20.7972 14.9647 21.4665 13.8276H20.1787V14.8959Z" fill="#003D9A"/>
<path fill-rule="evenodd" clip-rule="evenodd" d="M60.9641 14.3613H62.2519C61.5925 13.1809 62.1817 13.6974 60.9641 13.293V14.3613Z" fill="#003D9A"/>
<path fill-rule="evenodd" clip-rule="evenodd" d="M40.3564 10.0881H41.6446C41.2341 9.38084 40.5431 8.41008 40.3564 10.0881Z" fill="#003D9A"/>
<path fill-rule="evenodd" clip-rule="evenodd" d="M13.3092 5.28092L13.2381 4.74658C12.701 5.21322 12.7384 4.86452 13.3092 5.28092Z" fill="#1E426F"/>
</svg>
