<svg width="83" height="53" viewBox="0 0 83 53" fill="none" xmlns="http://www.w3.org/2000/svg">
<path d="M14.1366 52.4639C12.8581 51.9969 12.7844 51.8023 12.7844 48.8928V45.8155L15.6117 45.0378C17.1668 44.6101 19.656 43.9343 21.1434 43.5361C22.6309 43.1378 24.9542 42.3783 26.3064 41.8483C28.1825 41.1129 29.1489 40.989 30.3859 41.3254L32.0069 41.7661L31.861 44.7803L31.7152 47.7944L29.7483 48.3794C28.6666 48.7012 26.6844 49.2281 25.3436 49.5503C24.0027 49.8725 22.2326 50.451 21.4099 50.8358C20.0188 51.4867 15.6872 53.0838 15.5499 52.9966C15.5163 52.9752 14.8803 52.7355 14.1366 52.4639ZM15.1457 49.4751C15.0309 47.4836 14.8016 46.8611 14.1366 46.7347C13.4102 46.5966 13.2761 46.9534 13.2761 49.0247C13.2761 51.2905 13.5992 51.8852 14.8999 52.0132C15.1168 52.0345 15.2275 50.8924 15.1457 49.4751ZM19.6263 50.8924C20.6263 50.4196 20.8113 49.982 20.7995 48.1183C20.7842 45.6941 20.6817 45.6531 17.299 46.7192C16.165 47.0766 15.7525 47.4556 15.9468 47.9619C16.1006 48.3626 16.2264 49.4617 16.2264 50.4044C16.2264 51.9524 16.3334 52.0861 17.3327 51.786C17.9412 51.6033 18.9733 51.2012 19.6263 50.8924ZM22.8299 49.1576C22.978 48.9179 22.6592 48.6068 22.1213 48.4661C21.1595 48.2146 20.8279 48.6223 21.4712 49.2657C21.9268 49.7212 22.5102 49.6748 22.8299 49.1576ZM26.0811 47.5882C26.7195 46.3954 26.3828 45.1681 25.4173 45.1681C24.6433 45.1681 23.4494 47.4737 23.8706 48.1552C24.3589 48.9452 25.5133 48.6491 26.0811 47.5882ZM29.8713 47.8084C30.8271 47.5523 30.9776 47.1852 30.9776 45.1107C30.9776 42.3996 30.7245 42.2811 27.8445 43.6436C26.5981 44.2332 26.1475 44.6721 26.5395 44.9144C26.8761 45.1224 27.0474 45.9052 26.9305 46.7014C26.7084 48.2149 27.3929 48.4726 29.8713 47.8084ZM23.3561 46.6842C23.3561 45.5414 22.2358 45.5208 21.6301 46.6525C21.1232 47.5998 21.1813 47.6888 22.2115 47.5429C22.841 47.4537 23.3561 47.0673 23.3561 46.6842V46.6842ZM19.1766 45.1681C18.2233 44.552 17.7015 44.552 17.7015 45.1681C17.7015 45.4385 18.1993 45.6564 18.8078 45.6522C19.7025 45.6467 19.773 45.5536 19.1766 45.1681ZM24.7765 44.2067C25.5577 43.909 26.0687 43.5372 25.9119 43.3804C25.4905 42.9591 20.6517 44.2932 20.6517 44.8308C20.6517 45.3377 22.5702 45.0474 24.7765 44.2067ZM29.5025 42.2178C30.0863 41.8405 29.9838 41.7412 29.0108 41.7412C28.3347 41.7412 27.4496 41.9557 27.0439 42.2178C26.4601 42.5951 26.5626 42.6945 27.5356 42.6945C28.2117 42.6945 29.0968 42.48 29.5025 42.2178ZM42.3639 52.5913C41.9501 52.3355 41.6112 50.7245 41.4372 48.1864C41.1976 44.6911 41.2652 44.1847 41.9708 44.1847C42.4151 44.1847 42.7786 43.9634 42.7786 43.693C42.7786 43.4225 42.432 43.2012 42.0084 43.2012C41.4612 43.2012 41.2832 42.8173 41.3937 41.8754C41.5292 40.7209 41.9305 40.4345 44.4996 39.658C46.1222 39.1677 48.1136 38.8239 48.9249 38.8941C50.285 39.0119 50.4118 39.1847 50.5513 41.1115C50.6639 42.6679 50.9149 43.2112 51.5347 43.2401C52.0872 43.2658 52.1516 43.3652 51.7262 43.5356C51.2407 43.7301 51.2887 43.9409 51.9242 44.4056C52.4265 44.7729 52.6096 45.2671 52.3806 45.6377C52.0777 46.1278 51.9086 46.1177 51.5678 45.5893C51.238 45.0779 51.0668 45.1804 50.8344 46.0285C50.6676 46.637 50.1698 47.1419 49.7281 47.1505C49.0295 47.1645 49.0421 47.2549 49.8248 47.8482C51.4663 49.0922 50.6814 50.6394 47.9415 51.5607C44.1785 52.8261 43.074 53.0302 42.3638 52.5913L42.3639 52.5913ZM43.2121 49.9622C43.1801 48.8129 42.985 47.2087 42.7786 46.3974C42.4962 45.2874 42.3888 45.8048 42.345 48.4871C42.311 50.5747 42.4907 52.052 42.7786 52.052C43.049 52.052 43.2441 51.1116 43.2121 49.9622ZM46.9934 51.2491C51.0984 49.8889 51.535 48.5852 47.4765 49.8066C45.2533 50.4757 45.1152 50.4627 44.8796 49.5617C44.4703 47.9966 43.762 48.4842 43.762 50.331C43.762 52.313 43.7732 52.3162 46.9934 51.2491ZM48.5459 48.8047C48.3825 48.6413 47.9584 48.6238 47.6035 48.7659C47.2112 48.9229 47.3277 49.0394 47.9005 49.063C48.4189 49.0843 48.7093 48.9681 48.5459 48.8047V48.8047ZM50.0715 45.218C50.2131 44.2411 50.084 44.1406 49.0881 44.4549C45.165 45.6935 44.4908 46.0578 44.3479 47.0169C44.1972 48.0283 44.2137 48.0293 47.0523 47.1888C49.3414 46.5111 49.9407 46.1198 50.0715 45.218ZM44.6122 44.3793C44.4488 44.2159 44.0247 44.1984 43.6698 44.3405C43.2775 44.4975 43.3941 44.614 43.9669 44.6376C44.4852 44.6589 44.7756 44.5427 44.6122 44.3794V44.3793ZM50.1542 41.4419C50.1542 39.5594 50.3285 39.5774 45.599 40.9738C43.418 41.6178 42.1801 43.1209 44.3108 42.538C44.9555 42.3616 46.3127 42.0785 47.3269 41.9089C48.9895 41.6308 49.1708 41.7061 49.1708 42.6757C49.1708 43.2673 49.3919 43.6143 49.6625 43.4471C49.9329 43.28 50.1542 42.3776 50.1542 41.4419ZM48.6791 42.7095C48.6791 42.4391 48.4709 42.2178 48.2164 42.2178C47.9619 42.2178 47.617 42.4391 47.4498 42.7095C47.2827 42.98 47.4909 43.2012 47.9125 43.2012C48.3341 43.2012 48.6791 42.98 48.6791 42.7095ZM42.7786 42.2469C42.7786 41.9924 42.5573 41.6474 42.2869 41.4803C42.0164 41.3131 41.7952 41.5214 41.7952 41.943C41.7952 42.3646 42.0164 42.7095 42.2869 42.7095C42.5573 42.7095 42.7786 42.5013 42.7786 42.2469ZM2.33562 41.3469L0 40.5701V36.0757V31.5813L10.2604 28.2947C15.9037 26.487 20.8421 25.0081 21.2346 25.0081C21.6272 25.0081 23.0949 25.3485 24.4961 25.7647L27.0439 26.5213L27.037 30.313C27.0328 32.3984 26.8669 34.3456 26.6682 34.6401C26.2498 35.2603 6.51272 42.2582 5.40935 42.1777C5.00369 42.148 3.62076 41.7742 2.33618 41.3469H2.33562ZM5.40879 37.7803C5.40879 33.4815 5.43458 33.5176 1.6993 32.5802C0.493007 32.2774 0.491715 32.2812 0.491715 36.1777V40.0783L2.82733 40.8552C4.11192 41.2825 5.21825 41.6533 5.28585 41.6791C5.35346 41.705 5.40879 39.9505 5.40879 37.7803ZM15.9805 38.0685C16.7918 37.7309 19.3917 36.8142 21.7581 36.0315C25.9444 34.6467 26.0605 34.5669 26.0605 33.0729C26.0605 32.2284 26.2004 30.5169 26.3714 29.2694L26.6823 27.0013L19.4366 29.4287C15.4514 30.7637 11.9372 32.0463 11.6272 32.2787C11.3171 32.5112 10.6209 32.7237 10.08 32.751C9.53913 32.7783 8.48811 33.0333 7.7444 33.3176C6.56223 33.7695 6.39153 34.0987 6.38679 35.9364C6.384 37.0924 6.24355 38.8723 6.07508 39.8916L5.76878 41.745L10.1371 40.2137C12.5396 39.3715 15.1692 38.4062 15.9805 38.0685ZM12.391 37.6941C11.3585 36.6616 11.6904 33.9246 13.0079 32.6072C14.5243 31.0908 15.0195 31.0939 16.0234 32.626C17.8225 35.3718 14.5854 39.8885 12.391 37.6942V37.6941ZM14.9445 36.0313C15.5083 34.562 15.268 32.8754 14.4948 32.8754C13.5773 32.8754 12.5463 34.9877 12.9502 36.0401C13.3325 37.0364 14.5609 37.0309 14.9445 36.0318V36.0313ZM9.34245 32.1331C9.34245 31.6106 7.89853 31.5932 7.69896 32.1131C7.52845 32.5575 7.74956 32.6855 8.39583 32.5165C8.91647 32.3803 9.34245 32.2077 9.34245 32.133V32.1331ZM3.59842 31.7018C3.78163 31.2243 3.57793 31.0937 2.91899 31.266C2.40139 31.4013 2.0991 31.7082 2.24724 31.9479C2.64725 32.5951 3.30133 32.476 3.59842 31.7018ZM6.02343 32.058C5.68539 31.9216 5.1322 31.9216 4.79416 32.058C4.4561 32.1945 4.7327 32.306 5.40879 32.306C6.08489 32.306 6.36148 32.1944 6.02343 32.058ZM14.9361 30.2939C18.265 29.2266 18.327 29.1783 16.692 28.926C15.6218 28.7608 15.0498 28.4214 15.1401 28.0052C15.2224 27.626 15.0026 27.4536 14.6225 27.5995C14.2592 27.7389 12.5906 28.2377 10.9146 28.708C9.2386 29.1783 7.86733 29.7231 7.86733 29.9188C7.86733 30.1974 9.74507 30.9862 11.2744 31.3501C11.3904 31.3777 13.0382 30.9024 14.9361 30.2939ZM21.6352 27.5547C20.9591 27.468 20.1577 27.0774 19.8545 26.6867C19.4516 26.1678 18.9878 26.0973 18.1335 26.425L16.9639 26.8736L18.3457 27.415C19.1057 27.7128 19.6032 28.1575 19.4514 28.4033C19.2995 28.649 20.0053 28.5941 21.0198 28.2813C22.6598 27.7756 22.7281 27.695 21.6352 27.5548V27.5547ZM17.8244 28.1244C17.4864 27.9879 16.9332 27.9879 16.5951 28.1244C16.2571 28.2608 16.5337 28.3724 17.2098 28.3724C17.8859 28.3724 18.1625 28.2607 17.8244 28.1244ZM25.1443 26.5875C24.7896 26.4693 24.2656 26.6064 23.9798 26.8921C23.6149 27.2569 23.8069 27.3209 24.6248 27.1071C25.2897 26.9332 25.5126 26.7103 25.1443 26.5875ZM22.2498 26.6493C21.9117 26.5128 21.3586 26.5128 21.0205 26.6493C20.6825 26.7857 20.959 26.8973 21.6352 26.8973C22.3113 26.8973 22.5878 26.7856 22.2498 26.6493ZM60.0103 40.2139C57.7236 39.4229 55.2896 38.8119 54.6015 38.856C53.9133 38.9002 52.078 38.528 50.523 38.0288L47.6957 37.1212V33.5232C47.6957 31.4523 47.487 29.9252 47.2039 29.9252C46.9156 29.9252 46.7122 28.2342 46.7122 25.8356V21.746L50.457 20.8631C57.8713 19.1152 57.5298 19.2944 57.5298 17.1508C57.5298 15.6723 57.7521 15.1697 58.5129 14.9282C59.2981 14.679 59.397 14.4314 59.0046 13.6981C58.3927 12.5549 58.3761 9.26814 58.9774 8.31786C59.3015 7.80552 59.1285 7.46044 58.3552 7.0771C57.5542 6.68001 57.2459 6.02237 57.1329 4.47009C56.9646 2.15736 56.8048 2.28188 62.0738 0.620451C64.3731 -0.104543 65.1941 -0.165944 66.4992 0.2895C67.3805 0.59706 69.019 1.08708 70.1402 1.37844C72.0649 1.87857 72.1896 2.02165 72.3724 3.93814C72.4988 5.2642 72.3223 6.21178 71.8632 6.67086C71.3935 7.14059 71.1424 8.57164 71.1061 10.9867C71.0427 15.2018 71.5925 15.9123 74.3323 15.1558C75.5523 14.8189 76.8289 14.9246 79.1751 15.5567L82.3611 16.4151L82.5047 20.2199C82.5955 22.6229 82.4596 24.0247 82.136 24.0247C81.8267 24.0247 81.6236 25.4675 81.6236 27.6634V31.3022L79.0421 31.9215L76.4606 32.5408L78.4275 33.0899C80.215 33.5889 80.408 33.8023 80.5446 35.4317L80.695 37.2246L76.3651 38.5277C73.9837 39.2445 70.629 40.2573 68.9103 40.7785C65.0236 41.9571 65.0555 41.9592 60.0103 40.2139H60.0103ZM64.9054 39.8372C64.9054 38.6287 64.6346 38.3587 62.9014 37.8394C61.09 37.2967 58.5379 37.4548 57.3088 38.1858C56.9577 38.3946 60.8608 39.9666 64.7825 41.1959C64.8501 41.2171 64.9054 40.6057 64.9054 39.8372H64.9054ZM74.7396 38.3935C79.0176 37.1187 79.4238 36.8911 79.565 35.6901L79.7193 34.3787L77.3524 35.1041C76.0506 35.5031 72.8281 36.434 70.1913 37.1728C65.6366 38.4491 65.3971 38.5828 65.3971 39.8488V41.1814L67.7327 40.4835C69.0173 40.0996 72.1704 39.1591 74.7396 38.3935ZM53.4957 35.0177L53.3503 31.7512L51.1376 31.0915C49.9206 30.7287 48.759 30.4285 48.5561 30.4243C48.3533 30.4202 48.1874 31.8163 48.1874 33.5267V36.6364L50.523 37.4133C51.8076 37.8406 53.0347 38.2113 53.2498 38.2372C53.465 38.2631 53.5757 36.8143 53.4957 35.0177ZM68.4703 34.3257L81.1318 30.7165V27.6164C81.1318 25.9114 80.9992 24.5164 80.8373 24.5164C80.6754 24.5164 79.8456 24.839 78.9934 25.2332C77.0294 26.1419 59.5328 30.7248 56.4235 31.1449L54.0879 31.4606V34.9297C54.0879 37.9943 54.1882 38.3718 54.9483 38.1668C55.4216 38.0392 61.5065 36.3107 68.4703 34.3257ZM64.5915 37.055C64.373 36.4853 64.703 36.3174 66.0411 36.3174C66.994 36.3174 67.8475 36.51 67.9376 36.7453C68.0278 36.9807 69.7418 36.6864 71.7465 36.0911C74.2209 35.3564 75.1189 34.9043 74.5426 34.6832C74.0758 34.5041 73.8462 34.111 74.0324 33.8096C74.2531 33.4526 74.0499 33.357 73.449 33.5351C72.9418 33.6855 70.4249 34.4001 67.8557 35.1231C62.3536 36.6715 61.962 36.8596 63.2171 37.3511C64.6554 37.9143 64.901 37.8614 64.5915 37.055ZM76.0816 34.0535C75.9182 33.8901 75.494 33.8726 75.1391 34.0146C74.7469 34.1716 74.8634 34.2881 75.4362 34.3117C75.9545 34.333 76.2449 34.2167 76.0816 34.0534V34.0535ZM78.1816 33.8588C77.2186 33.2365 76.5677 33.2365 76.9523 33.8588C77.1194 34.1293 77.6303 34.3471 78.0876 34.343C78.8042 34.336 78.8172 34.2696 78.1816 33.8588H78.1816ZM76.0816 33.0701C75.9182 32.9067 75.494 32.8892 75.1391 33.0312C74.7469 33.1881 74.8634 33.3047 75.4362 33.3282C75.9545 33.3496 76.2449 33.2333 76.0816 33.07V33.0701ZM52.8427 27.5896C52.6557 25.7641 52.3615 24.1419 52.1889 23.9846C51.88 23.7031 48.1234 22.5496 47.5157 22.5496C47.3442 22.5496 47.2039 24.0596 47.2039 25.9052V29.2608L49.5396 30.0377C53.2931 31.2862 53.2265 31.3356 52.8427 27.5896ZM65.8889 27.7047C71.7033 26.1828 77.6222 24.6058 79.042 24.2004L81.6235 23.4632V20.302C81.6235 18.5634 81.5049 17.1408 81.3599 17.1408C81.2149 17.1408 79.2346 17.6077 76.9592 18.1784L72.8222 19.216L72.6746 21.4936C72.498 24.2163 71.5625 24.8414 66.9405 25.3245L63.9555 25.6365L63.63 23.6013C63.4511 22.482 63.2776 21.5752 63.2445 21.5863C63.2115 21.5974 61.0824 22.1198 58.5132 22.7473L53.842 23.8881L53.6967 27.4386C53.565 30.6583 53.6337 30.965 54.4343 30.7305C54.9198 30.5882 60.0744 29.2266 65.8889 27.7047ZM58.6116 27.8601C57.7917 27.0402 57.875 25.4361 58.8066 24.1062C60.6157 21.5232 63.5191 24.5278 61.7795 27.1827C60.8914 28.5382 59.5718 28.8203 58.6116 27.8601ZM60.8734 27.3684C61.6129 26.6288 61.6457 24.1954 60.9222 23.7482C59.9491 23.1468 58.348 25.2661 58.704 26.6844C59.0466 28.0494 59.9178 28.324 60.8735 27.3684H60.8734ZM74.3462 23.9264C72.9171 22.4972 74.4577 18.9279 76.3851 19.2026C77.2123 19.3205 77.4766 19.7435 77.5929 21.1363C77.8113 23.7499 75.8528 25.433 74.3462 23.9264ZM77.0985 21.1001C76.9078 19.4635 75.7145 19.4895 74.7822 21.1505C74.1661 22.2482 74.1548 22.5825 74.711 23.2526C75.3193 23.9856 75.4474 23.9816 76.3086 23.2023C76.8734 22.6911 77.1867 21.8573 77.0985 21.1002L77.0985 21.1001ZM70.683 23.9758C71.6739 23.601 71.7894 23.224 71.7894 20.3614V17.1654L70.1913 17.5219C68.0811 17.9926 61.0844 17.9786 59.3737 17.5003C58.1626 17.1616 58.0215 17.2483 58.0215 18.3318C58.0215 19.8511 58.4921 20.1359 61.6362 20.5197L64.1679 20.8287L64.3211 22.9604L64.4744 25.0922L67.0255 24.7432C68.4286 24.5513 70.0745 24.206 70.683 23.9759V23.9758ZM57.6856 22.273L61.5293 21.3709L59.1608 20.6794C57.0542 20.0644 56.3708 20.0841 52.9815 20.8575C49.1323 21.7358 48.371 22.2258 50.1374 22.6877C50.7101 22.8375 51.0608 22.7106 50.9979 22.3763C50.9395 22.0659 51.6109 21.7427 52.4898 21.658C54.2302 21.4902 54.5927 22.1762 53.2274 23.054C52.6643 23.4161 52.6218 23.5326 53.1044 23.3912C53.5101 23.2723 55.5716 22.7692 57.6856 22.273ZM76.9523 17.5879C78.3045 17.2685 79.621 16.8159 79.8779 16.5823C80.5825 15.9415 78.8136 16.0615 77.7483 16.7267C76.7301 17.3626 74.9986 16.9317 75.475 16.1609C75.6433 15.8885 75.4542 15.6657 75.0547 15.6657C73.5698 15.6657 72.7728 16.2968 72.7728 17.4724C72.7728 18.3946 72.9773 18.6212 73.6332 18.4255C74.1065 18.2842 75.6001 17.9074 76.9523 17.5879ZM67.0514 16.4629C69.4194 15.4734 70.8074 13.4688 70.7984 11.0511C70.7859 7.77515 70.5739 7.65787 64.8475 7.76424C62.0517 7.81623 59.672 7.95088 59.5593 8.06357C59.4466 8.17619 59.254 9.32436 59.1313 10.6149C58.8725 13.3366 60.0693 15.3178 62.651 16.4419C64.5891 17.2857 65.0764 17.2881 67.0514 16.4628V16.4629ZM59.1731 15.9366C59.3559 15.4604 59.2102 15.3148 58.734 15.4975C58.3422 15.6479 58.0215 15.9685 58.0215 16.21C58.0215 16.9169 58.8747 16.7144 59.1731 15.9366ZM60.9718 16.4323C60.9718 16.313 60.7505 16.0787 60.4801 15.9116C60.2096 15.7444 59.9883 15.842 59.9883 16.1284C59.9883 16.4148 60.2096 16.6491 60.4801 16.6491C60.7505 16.6491 60.9718 16.5516 60.9718 16.4323ZM70.0684 16.1574C70.2355 15.887 70.151 15.6657 69.8805 15.6657C69.6101 15.6657 69.2521 15.887 69.085 16.1574C68.9178 16.4279 69.0023 16.6491 69.2728 16.6491C69.5432 16.6491 69.9012 16.4279 70.0684 16.1574ZM71.7894 16.1864C71.7894 15.9319 71.5681 15.587 71.2976 15.4198C71.0272 15.2527 70.8059 15.461 70.8059 15.8825C70.8059 16.3041 71.0272 16.6491 71.2976 16.6491C71.5681 16.6491 71.7894 16.4409 71.7894 16.1864ZM70.9289 6.57128C71.4021 6.37698 71.7894 5.74384 71.7895 5.16428C71.7897 4.13713 71.6155 4.11056 64.8851 4.11056H57.9806L58.124 5.33748C58.23 6.24489 58.6515 6.65389 59.7425 6.90797C61.5069 7.31888 69.7092 7.07201 70.9289 6.57128ZM71.3514 3.02421C71.7972 2.57841 71.6019 2.37124 70.5083 2.12987C69.7254 1.95709 68.8302 1.73889 68.5188 1.64497C68.2074 1.55103 67.8409 1.90144 67.7043 2.4236C67.4997 3.20585 67.0124 3.37298 64.936 3.37298C63.1496 3.37298 62.3336 3.15827 62.133 2.63542C61.7146 1.5452 58.0215 1.78258 58.0215 2.89969C58.0215 3.57707 59.9868 3.78543 65.5027 3.69284C68.7823 3.63779 70.9902 3.38538 71.3514 3.02421ZM66.8723 2.26664C66.8723 1.86599 66.1019 1.65201 64.6596 1.65201C62.522 1.65201 62.0831 1.86192 62.7747 2.55347C63.3793 3.1581 66.8723 2.9136 66.8723 2.26664ZM33.5066 39.2581C30.2852 38.5832 29.9289 38.1012 30.0957 34.6439C30.2324 31.8082 30.3235 31.6119 31.8314 30.9019C33.3883 30.1688 33.399 30.1422 32.3231 29.6701C31.2688 29.2075 31.2178 28.8994 31.0871 22.1935L30.9508 15.1994L32.2149 14.8822C33.635 14.5258 33.6052 13.5456 32.1661 13.2772C30.4515 12.9573 29.9942 12.1593 29.9942 9.487C29.9942 5.81963 30.7948 5.33981 36.9141 5.33981C39.518 5.33981 42.3551 5.58618 43.2189 5.8873C44.7797 6.43139 44.7885 6.45346 44.6445 9.45218C44.5062 12.3304 44.4258 12.502 42.9015 13.173C41.0107 14.0052 40.9322 14.2862 42.4098 14.9344C43.4562 15.3935 43.5238 15.7393 43.6585 21.3203C43.8248 28.2109 43.6697 29.1052 42.1882 29.7661C41.0929 30.2548 41.0955 30.2636 42.5463 30.9568C43.9053 31.6062 44.0181 31.8686 44.1536 34.6976C44.2836 37.413 44.1779 37.8194 43.1701 38.4785C41.7456 39.4102 36.3215 39.8478 33.5066 39.2581H33.5066ZM42.5096 38.2053C43.5445 37.7338 43.762 37.2968 43.762 35.6894C43.762 33.9075 43.669 33.7704 42.6557 34.056C39.9828 34.8095 35.5374 34.8774 33.0423 34.2029L30.4357 33.4982L30.5837 35.5109C30.6994 37.0844 31 37.6587 31.961 38.1426C33.512 38.9234 40.8379 38.967 42.5096 38.2053V38.2053ZM34.516 33.3019C33.2107 32.9256 32.9512 32.6452 33.1956 31.8752C33.4576 31.0496 33.3455 30.9738 32.387 31.3284C31.7749 31.5548 31.1924 31.9853 31.0924 32.2851C30.9046 32.8485 33.4272 33.7702 35.1571 33.7702C35.698 33.7702 35.4095 33.5594 34.516 33.3019ZM37.8615 32.0805C37.8615 31.5366 38.1619 31.3642 38.8132 31.5345C39.3634 31.6784 39.8754 31.4952 40.027 31.1001C40.2341 30.5604 39.6213 30.4169 37.1085 30.4169C34.0436 30.4169 33.9278 30.4617 33.9278 31.6462C33.9278 32.7525 34.1245 32.8755 35.8947 32.8755C37.3782 32.8755 37.8615 32.6801 37.8615 32.0805ZM42.7786 31.892C42.7786 31.6216 42.5443 31.4003 42.2579 31.4003C41.9714 31.4003 41.8739 31.6216 42.041 31.892C42.2082 32.1625 42.4425 32.3837 42.5617 32.3837C42.6811 32.3837 42.7786 32.1625 42.7786 31.892ZM42.3386 28.4224C43.1625 27.9815 43.2703 27.3247 43.2703 22.745C43.2703 17.7153 43.2407 17.5756 42.2424 17.8925C40.8542 18.3331 35.0455 18.3418 33.0674 17.9064L31.4693 17.5546V22.9801V28.4057L33.3132 28.7141C34.3274 28.8837 35.3784 29.11 35.6488 29.2169C36.4601 29.5375 41.3374 28.9584 42.3386 28.4226V28.4224ZM33.614 15.9115C33.2896 15.0663 33.2985 15.069 32.2059 15.4883C31.5525 15.739 31.5195 15.8866 32.0427 16.2183C33.0864 16.8798 33.9229 16.7165 33.614 15.9115ZM42.6659 16.0652C42.3624 15.1547 41.4557 15.0515 41.1336 15.8907C40.9297 16.4222 41.1448 16.6491 41.8516 16.6491C42.4119 16.6491 42.774 16.3895 42.6659 16.0652ZM38.1284 15.6996C37.6949 14.9983 38.8571 14.4978 39.4778 15.1185C40.3038 15.9445 40.8118 15.7784 40.8118 14.6823C40.8118 13.7925 40.4839 13.6988 37.3698 13.6988C34.3055 13.6988 33.9278 13.8023 33.9278 14.6413C33.9278 15.1596 34.2044 15.6953 34.5425 15.8317C35.6374 16.2736 38.4197 16.1711 38.1284 15.6996V15.6996ZM42.4098 12.6896C44.1792 12.1982 44.2537 12.0911 44.2537 10.0402V7.90289L42.164 8.38865C40.0348 8.88357 33.398 8.65671 31.8381 8.0357C31.0938 7.73941 30.9776 7.99792 30.9776 9.94907C30.9776 12.01 31.0945 12.2308 32.3298 12.5032C33.0735 12.6672 33.9033 12.8753 34.1737 12.9655C35.3081 13.3439 40.7047 13.1631 42.4098 12.6896ZM43.7566 7.29835C45.1547 6.51311 42.7582 6.07739 37.0415 6.07739C32.0042 6.07739 30.3577 6.35899 31.0934 7.09469C32.1732 8.17439 41.9179 8.33112 43.7566 7.29835Z" fill="#003D9A"/>
</svg>
