<svg width="82" height="56" viewBox="0 0 82 56" fill="none" xmlns="http://www.w3.org/2000/svg">
<path fill-rule="evenodd" clip-rule="evenodd" d="M12.0819 52.5693L16.3809 50.8362L16.4004 54.2203L12.3166 52.7739C12.2658 52.7421 12.158 52.641 12.0819 52.5693ZM17.2868 54.2203V50.3676L22.1288 49.0939L22.1626 52.5691C21.0367 53.2398 18.8851 53.7421 17.2868 54.2201V54.2203ZM0.443673 44.3135L9.34058 47.4682L9.30847 52.0189L0.448603 49.2445L0.443673 44.3135ZM30.2549 46.5149L34.5626 44.819L34.5732 48.1662L30.2548 46.5149H30.2549ZM35.4598 48.7138V44.3133L40.3018 43.0395L40.3355 46.5148C38.7244 47.4747 37.339 47.031 35.4598 48.7136V48.7138ZM7.97864 45.9646C8.38855 45.4109 9.6047 46.7225 8.48446 46.2425C8.47385 46.238 7.4437 46.6873 7.97864 45.9646ZM6.20574 45.4144H7.53542V45.9646H6.20574V45.4144ZM4.87607 44.864C5.28583 44.3103 6.50212 45.6218 5.38174 45.1417C5.37128 45.1373 4.34097 45.5867 4.87607 44.864ZM3.10302 44.3137C3.51293 43.76 4.72922 45.0716 3.60884 44.5916C3.59823 44.5871 2.56807 45.0364 3.10302 44.3137ZM1.84938 44.1228C2.3549 43.3113 3.2545 44.2135 2.2941 44.1931C2.28469 44.1929 0.860307 45.7105 1.84938 44.1228ZM9.30847 45.4144L5.78896 44.1842L7.24964 43.4081C11.2869 41.8463 10.8443 42.5979 13.2976 42.6624C10.8999 45.3703 10.2823 42.4053 9.30847 45.4144ZM50.543 43.2697L50.5302 39.3601C52.8438 39.1043 53.486 38.2618 56.2901 38.2594L55.7621 41.5489L50.543 43.2695V43.2697ZM50.0668 39.8058L50.0869 43.213L45.267 41.5135L50.0666 39.8058H50.0668ZM14.6275 42.1123C15.1012 40.655 13.7156 41.0857 16.4004 41.0113C15.8493 41.491 16.7159 40.9641 15.5631 41.6489C15.3078 41.8006 14.7697 41.9503 14.6275 42.1123ZM17.2868 39.9108C19.7185 39.8162 21.1778 37.7604 22.6058 40.4612C21.0479 40.5216 20.9913 40.9164 19.9042 40.9828C18.7499 41.0531 19.3648 41.1154 18.4293 40.7216C16.7023 39.9948 17.8797 40.4202 17.2867 39.9108H17.2868ZM24.0115 38.7628C24.4234 38.2358 25.4334 39.6882 24.4562 39.1C24.4468 39.0945 23.1926 39.8103 24.0115 38.7628ZM26.1518 38.8099L27.0461 36.6135L29.2348 37.2881C28.4723 38.5777 27.6529 38.6439 26.1519 38.8099H26.1518ZM16.8436 36.6085C18.5106 37.1039 18.1586 36.7597 18.6166 38.2597C17.3103 37.8207 17.6993 38.2124 16.8436 36.6085ZM31.4707 36.0581C31.8807 35.5044 33.0968 36.816 31.9766 36.336C31.966 36.3315 30.9358 36.7808 31.4707 36.0581ZM18.1734 34.9574L19.2291 36.4653C17.6411 35.8964 18.4891 37.5768 18.1734 34.9574ZM25.2653 35.5078L25.3977 35.6717C25.3888 35.6612 25.2212 35.5623 25.2653 35.5078ZM21.2761 35.3662C21.2451 34.1158 22.0268 35.5003 21.56 35.4705C21.5544 35.4701 21.3123 36.8218 21.2761 35.3662ZM68.7206 37.2332L68.7033 33.3061C71.4991 33.303 71.0229 32.2726 73.579 32.2052V35.5076L68.7206 37.233V37.2332ZM68.2314 33.7192L68.26 37.1588C66.7707 36.7133 65.1068 36.4573 63.9416 35.3189L68.2314 33.7192ZM34.1304 34.9574H35.9033V35.5078H34.1304V34.9574ZM20.3138 36.1054C19.6587 36.2384 19.6628 35.0027 20.3541 35.1537C21.3919 35.38 20.4329 34.0505 20.4497 35.4087C20.4509 35.5157 20.6572 36.0355 20.3138 36.1054ZM23.9358 34.407L24.0681 34.5712C24.0593 34.5604 23.8917 34.4618 23.9358 34.407ZM36.4226 33.8096C39.1963 33.0546 37.8698 33.584 40.3358 33.8567C38.8511 35.1321 37.6542 34.9962 36.4226 33.8096ZM32.8006 33.3065H33.2438L32.8744 33.9485L32.8004 33.3065H32.8006ZM27.4817 33.3065L27.6141 33.4705C27.6053 33.4599 27.4377 33.361 27.4817 33.3065ZM24.0118 33.2592C24.4237 32.7322 25.4337 34.1848 24.4565 33.5964C24.4471 33.5907 23.1929 34.3067 24.0118 33.2592ZM14.5897 33.1177C14.6167 32.0335 15.5344 33.4694 14.9059 33.2952C14.8998 33.2935 14.5468 34.84 14.5897 33.1177ZM13.26 33.1177C13.26 32.0635 14.2181 33.4293 13.5851 33.2789C13.5845 33.2787 13.5437 33.2692 13.542 33.2685C13.3744 33.1965 13.26 35.0199 13.26 33.1177ZM11.0817 32.756C12.5479 33.2512 12.0126 32.5866 12.4115 34.407C10.7205 33.8018 11.7357 34.4744 11.0817 32.756ZM25.7847 32.7087C26.1966 32.1819 27.2066 33.6343 26.2294 33.0459C26.22 33.0403 24.9659 33.7561 25.7847 32.7087ZM43.8818 33.3063C42.1458 33.3102 42.1276 33.7691 40.8929 32.5671C41.8729 31.9609 42.8944 31.5927 43.8818 33.3063ZM30.5844 32.2054L30.7168 32.3696C30.7081 32.3588 30.5405 32.2601 30.5844 32.2054ZM27.0385 32.2054H28.3683C28.279 32.2781 28.1429 32.2963 28.1042 32.4302C28.0694 32.5508 27.8849 32.5747 27.8389 32.5701C26.9608 32.4837 27.6614 32.6871 27.0385 32.2054ZM45.6548 31.6551H46.9845C46.8953 31.7278 46.7591 31.746 46.7204 31.8799C46.5467 32.4822 45.6626 31.6612 45.6548 31.6551ZM32.3575 31.6551L32.4897 31.8192C32.481 31.8085 32.3134 31.7098 32.3575 31.6551ZM28.8114 31.6551C29.2213 31.1014 30.4376 32.413 29.3172 31.9329C29.3066 31.9285 28.2765 32.3777 28.8114 31.6551ZM45.6547 31.6551H44.325C44.4142 31.5823 44.5504 31.2993 44.5891 31.4302C44.6239 31.5482 44.8083 31.2859 44.8543 31.2904C45.7324 31.3766 45.0317 31.1731 45.6547 31.6551ZM35.9033 31.1049L36.0356 31.2689C36.0268 31.2583 35.8592 31.1594 35.9033 31.1049ZM34.5735 31.1049L34.7058 31.2689C34.6972 31.2583 34.5296 31.1594 34.5735 31.1049ZM30.5843 31.1049C30.9942 30.551 32.2105 31.8626 31.0901 31.3826C31.0797 31.3781 30.0494 31.8276 30.5843 31.1049ZM15.9573 31.1049C16.3672 30.551 17.5833 31.8626 16.4631 31.3826C16.4525 31.3781 15.4223 31.8276 15.9573 31.1049ZM17.7302 30.5545H19.0599V31.1049H17.7302V30.5545ZM48.428 30.0042C49.7305 29.2034 49.2552 29.1331 50.0871 30.5545C49.8385 30.5545 49.3612 30.5655 49.238 30.5178C48.3358 30.1694 48.8355 30.3878 48.428 30.004V30.0042ZM47.4276 30.0042L47.5599 30.1681C47.5511 30.1576 47.3835 30.0589 47.4276 30.0042ZM43.4384 29.4538C43.4384 28.8068 44.3922 28.2136 44.1245 29.4538C43.8561 30.6974 45.2522 29.4688 43.9199 29.617C43.3615 29.6792 43.4384 30.5727 43.4384 29.4538ZM54.0763 28.3531C53.8033 31.3985 53.7545 29.5269 50.9735 29.4538C51.7375 28.7975 50.1934 29.4189 52.1053 28.6577C53.1974 28.2229 52.9136 28.3835 54.0763 28.3531ZM18.1736 28.9033C17.484 29.5441 17.9765 29.5441 17.287 28.9033H18.1736ZM55.8493 28.3531H56.2924L55.9231 28.9951L55.8492 28.3531H55.8493ZM10.1952 52.0195V47.6164L81.5108 23.7328L81.5575 28.3531L10.1952 52.0195ZM55.8493 28.3531H55.4061L55.7755 27.7109L55.8495 28.3531H55.8493ZM27.0384 32.2058L23.9444 32.8124L25.2631 30.0023L33.228 27.7259L31.9165 30.5566C30.1836 30.6219 28.2107 31.1962 27.0384 32.2058ZM42.9952 27.2524L43.1275 27.4165C43.1187 27.4058 42.9513 27.3071 42.9952 27.2524ZM58.0656 27.8027C58.4298 26.6096 58.1946 26.5575 59.7732 25.9964C60.9535 25.5768 60.8408 25.4499 61.6495 26.6547C60.3731 28.1058 60.3646 27.8027 58.0656 27.8027ZM49.2006 26.1517L51.4408 25.7582C51 27.4809 49.7853 28.917 49.2006 26.1517ZM62.9412 25.6013H64.2709V26.1517H62.9412V25.6013ZM39.006 25.6013L39.1384 25.7653C39.1296 25.7547 38.9621 25.6558 39.006 25.6013ZM18.1736 28.9035C17.9017 28.1713 17.736 27.551 17.5139 26.9706C16.8439 25.2201 17.0185 26.968 16.8437 24.5004C20.481 24.9025 17.2864 25.6013 25.2655 25.6013L24.4259 28.9239C23.0964 28.7695 20.2185 26.9079 21.434 29.2108C22.2441 30.7456 21.4854 28.3574 22.1627 30.5549C20.1042 30.5007 19.9502 30.0214 18.1736 28.9036V28.9035ZM65.6007 24.5004L65.733 24.6646C65.7242 24.6538 65.5566 24.5551 65.6007 24.5004ZM52.3792 23.9029C52.5065 23.8682 53.262 23.5744 53.3695 23.5729C55.2443 23.5496 53.7894 23.385 54.5574 23.9973C53.8683 25.1142 54.4503 24.7829 53.7219 24.7931C52.2671 24.8137 52.3848 23.9089 52.3791 23.9029H52.3792ZM44.325 23.95L44.4572 24.1142C44.4486 24.1036 44.2809 24.0048 44.325 23.95ZM34.243 25.2186L25.6934 28.2848L25.8966 25.6696C28.3199 23.666 32.1265 23.6876 34.5735 22.299L34.243 25.2186ZM79.8604 22.8022C80.2722 22.2752 81.2824 23.7276 80.3051 23.1394C80.2958 23.1339 79.0416 23.8497 79.8604 22.8022ZM58.5087 22.8493C58.9186 22.2956 60.1349 23.6071 59.0145 23.127C59.0039 23.1225 57.9737 23.572 58.5087 22.8493ZM66.9304 23.3997C68.419 23.3418 69.6327 22.8719 70.983 22.3489C73.5837 21.3413 72.3061 22.2305 74.9087 22.2988C74.5987 22.5687 74.6751 22.6091 74.0742 22.9404C71.8587 24.1621 69.0746 25.2416 66.9304 23.3997ZM60.2817 22.2988C60.7403 21.7462 61.8794 23.0717 60.7972 22.5885C60.7865 22.5837 59.7333 22.9597 60.2817 22.2988ZM57.255 22.2517C57.6669 21.7247 58.6769 23.1771 57.6997 22.5889C57.6903 22.5833 56.4362 23.2991 57.255 22.2517ZM76.3144 21.7013C76.7149 21.1877 77.4863 22.5353 76.7487 22.0515C76.7396 22.0456 75.5113 22.7317 76.3144 21.7013ZM58.5087 21.7484H59.8385C59.7491 21.8211 59.6131 21.8393 59.5744 21.9732C59.4006 22.5755 58.5164 21.7545 58.5087 21.7484ZM75.7953 21.1982C74.9746 21.8705 76.975 21.7312 75.2618 21.5629C74.3854 21.4767 74.9855 21.6217 74.4655 21.1982H75.7953ZM60.3577 21.1509C60.7582 20.6373 61.5297 21.9849 60.792 21.5013C60.7829 21.4952 59.5546 22.1814 60.3577 21.1509ZM35.0168 25.0508L35.708 22.0929L43.8519 19.4012C43.818 23.293 42.9507 22.6328 40.3436 23.4091C38.722 23.892 36.5279 24.8836 35.0168 25.0508ZM73.2118 20.6004C73.6122 20.0868 74.3838 21.4344 73.6461 20.9508C73.637 20.9449 72.4088 21.6308 73.2118 20.6004ZM62.0547 20.6477C62.5132 20.0951 63.6524 21.4206 62.5701 20.9374C62.5594 20.9326 61.5062 21.3086 62.0547 20.6477ZM66.9304 20.0973L67.0627 20.2613C67.0539 20.2507 66.8863 20.1521 66.9304 20.0973ZM63.9035 20.0502C64.3155 19.5232 65.3255 20.9756 64.3483 20.3874C64.339 20.3819 63.0848 21.0977 63.9035 20.0502ZM68.6653 19.3583C68.6653 18.3042 69.6235 19.67 68.9904 19.5193C68.9898 19.5192 68.949 19.5099 68.9474 19.5091C68.7797 19.437 68.6653 21.2606 68.6653 19.3583ZM58.5087 21.7484C56.6606 21.7529 55.9452 21.836 54.5955 20.7421C56.283 19.982 58.3812 19.3025 60.0984 18.7629C62.2271 18.0938 63.3 17.4969 65.1575 19.5468C63.1841 19.6236 59.8515 20.592 58.5088 21.7482L58.5087 21.7484ZM47.8708 21.1982L44.7767 21.8046L44.7681 18.9964C45.5639 18.5266 46.6657 18.2563 47.8708 17.8957C47.3787 20.7549 47.8332 18.4448 47.8708 21.1981V21.1982ZM52.8353 19.588L48.3357 20.7508C48.6891 18.4572 48.6478 19.9347 48.3142 17.8959C50.3372 17.2873 51.2279 16.3081 53.633 16.2448L52.8353 19.588ZM48.2761 16.6064C48.2761 15.5522 49.2342 16.918 48.6013 16.7674C48.6007 16.7672 48.5598 16.7579 48.5583 16.7572C48.3905 16.6852 48.2761 18.5086 48.2761 16.6064ZM47.3896 16.6064C47.4165 15.5221 48.3344 16.9579 47.7059 16.7839C47.6996 16.7822 47.3468 18.3285 47.3896 16.6064ZM67.8168 15.1439C69.2829 15.6392 68.7476 14.9746 69.1465 16.795H67.8168V15.1439ZM44.3249 15.6943L46.9606 16.3871C46.5262 17.7447 46.8781 17.4003 45.2113 17.8957C44.9018 17.3387 45.1949 18.0922 44.7158 16.8545C44.668 16.731 44.4172 15.941 44.3249 15.6943ZM64.2707 15.1439C65.3821 15.2669 64.739 15.0033 65.7935 15.4546C67.58 16.2192 66.2548 15.6644 66.9302 16.2446C65.2003 16.199 65.5005 16.4852 64.2707 15.1437V15.1439ZM66.487 14.5936H66.9302L66.5608 15.2357L66.4868 14.5936H66.487ZM62.6106 15.8622L54.0528 18.8905L54.506 15.6909L62.9263 12.8752L62.6106 15.862V15.8622ZM51.86 10.1905C53.0567 11.2877 53.1877 12.5754 53.1897 15.1439L49.2339 16.4255C49.5523 14.6301 49.6525 14.8846 50.5293 13.4917C51.7517 11.5502 51.7187 12.5171 51.86 10.1907V10.1905ZM69.5897 13.4928V15.1439C68.524 14.163 68.0875 14.7889 69.5897 13.4928ZM66.487 14.5936H64.7141C65.0169 13.3951 64.7995 13.1402 66.487 14.5936ZM32.8004 12.3921C35.1211 12.302 37.689 10.6147 39.1066 11.1556C40.296 11.6097 40.4931 12.2367 41.212 13.5055C42.5659 15.8955 41.8733 14.545 43.8816 15.6945V18.4464C42.4502 18.7766 44.0022 18.3919 42.8238 18.7952C42.7184 18.831 42.5812 18.8801 42.4644 18.9191C42.3256 18.9656 41.8987 19.1166 41.7534 19.1615L35.4601 21.1984C34.8421 18.0129 34.323 14.7729 31.5469 13.3986L32.8006 12.3921H32.8004ZM66.9302 13.493L64.7337 12.8132C64.8612 11.2493 64.0906 10.9681 65.7779 11.4852C66.9444 11.8429 66.7931 11.9694 66.9302 13.493ZM42.9973 11.6989L50.0738 9.03173L50.4434 12.2445L47.3565 16.1569C46.8466 15.0549 47.0541 14.9445 43.8815 14.5936L42.9973 11.6989ZM41.222 11.8418C41.5276 11.4695 42.71 12.1975 41.9292 12.527C41.4196 12.7422 41.1252 11.9597 41.222 11.8418ZM67.9311 13.1595L67.8167 10.7411L69.5238 11.5201L67.9312 13.1593L67.9311 13.1595ZM63.3841 9.64033C63.7592 10.3725 63.8759 8.80468 63.761 10.7429C63.692 11.9069 63.6887 11.2465 63.3841 11.842V9.64052V9.64033ZM66.4868 10.7412H66.9301L66.5606 11.3834L66.4867 10.7412H66.4868ZM66.4868 10.7412C64.7099 10.6988 65.6192 11.163 64.3847 10.0493C64.7597 9.82582 63.4279 9.22761 65.3261 9.9336C66.7514 10.4636 66.0642 10.3773 66.4868 10.7412ZM62.9409 7.98925L63.3841 9.64033L62.9409 7.98925ZM51.8598 10.1907C51.3557 9.74291 51.5186 10.5522 51.203 9.43573C50.6855 7.60528 51.0981 9.2085 51.3026 8.68114L51.8598 10.1907ZM51.8598 6.88835C54.3644 6.82269 58.1162 4.70788 59.2768 4.9006C61.8876 5.3341 62.5017 9.7379 62.4977 12.3923L54.0385 14.9649C54.0038 10.9034 52.2285 10.0634 51.86 6.88854L51.8598 6.88835ZM43.4363 7.94993C43.186 8.20591 43.7829 8.51977 42.2971 8.77204C41.4054 8.92321 42.0079 9.03191 41.336 8.35097L43.4363 7.94993ZM37.3089 7.94214C37.7092 7.42832 38.4808 8.77612 37.7431 8.29235C37.734 8.28642 36.5058 8.97237 37.3089 7.94214ZM62.4977 6.88835L62.9409 7.98925L62.4977 6.88835ZM44.3247 7.43871C44.3247 6.01616 45.0004 7.3135 44.5867 7.43871C44.5817 7.44019 44.3247 8.90244 44.3247 7.43871ZM46.9841 6.33799C46.5104 7.79523 47.8958 7.36433 45.2112 7.43871C45.678 7.03767 45.0192 7.43537 46.0453 6.82343C46.1348 6.77001 46.806 6.44335 46.9842 6.33799H46.9841ZM42.5517 6.88817L42.684 7.05233C42.6754 7.04175 42.5077 6.94289 42.5517 6.88817ZM41.6652 6.88817L41.7976 7.05233C41.7888 7.04175 41.6211 6.94289 41.6652 6.88817ZM40.3355 6.88817L38.9979 7.96811C39.604 6.95828 39.3291 7.26973 40.3355 6.88817ZM62.4977 6.88817H62.0546L62.4239 6.24617L62.4978 6.88817H62.4977ZM40.3355 6.88817V6.33799L40.8526 6.79653L40.3355 6.88835V6.88817ZM42.1084 5.78745C42.5669 5.23486 43.7061 6.5604 42.6238 6.07719C42.6131 6.07237 41.5599 6.44836 42.1084 5.78745ZM49.6436 5.23709L49.7759 5.40125C49.7671 5.39049 49.5995 5.29181 49.6436 5.23709ZM45.6544 4.68673H48.7571C48.5632 6.90597 49.2508 6.4543 47.8497 5.9492C47.0707 5.66855 48.0986 5.23709 45.6545 5.23709V4.68673H45.6544ZM51.4929 5.42926C52.3243 3.66169 51.6216 4.30758 53.1895 4.13656L51.4929 5.42926ZM54.152 3.5389C54.5638 3.0121 55.574 4.46451 54.5967 3.87612C54.5874 3.87037 53.3332 4.58638 54.152 3.5389ZM55.849 3.5862L57.558 2.32039C56.6255 4.30628 57.7301 3.37715 55.849 3.5862ZM61.1679 1.93493H61.6111L61.2416 2.57711L61.1677 1.93493H61.1679ZM58.5084 1.93493C58.9183 1.38124 60.1346 2.69286 59.0142 2.2128C59.0036 2.20835 57.9734 2.65762 58.5084 1.93493ZM61.1679 1.93493H60.7246L61.0941 1.29294L61.168 1.93493H61.1679ZM32.8003 12.3923C30.5649 12.4791 27.7307 13.2339 26.1518 14.5937C26.812 14.5681 34.5653 10.4971 34.5733 21.7488L26.1937 24.1663C25.0509 20.3743 25.6476 20.2008 23.2322 17.1183C22.8003 16.5672 23.2057 17.2862 22.6058 16.245L24.3787 15.1441C22.3226 15.2241 20.0582 15.7661 18.6165 17.3455C20.9094 17.0525 23.5265 14.9898 25.265 23.95C23.1203 25.7925 18.9861 24.1969 16.8433 22.8493L17.2865 19.547C15.0916 22.613 16.7813 25.2682 16.8433 28.9035C14.1844 30.584 15.3597 29.7834 14.3713 29.3075C14.3178 29.2817 14.188 29.2162 14.1346 29.1925L13.6875 29.0377C11.9115 28.3715 14.5758 27.2346 12.411 26.1517C12.4073 28.6714 12.7055 29.0303 12.8541 31.1051C10.4187 32.1997 14.8042 30.1092 11.9893 31.6823C11.3715 32.0275 12.6662 31.9301 10.638 32.2058C10.688 35.9798 11.5613 35.1794 13.7525 35.0652C15.2616 34.9863 16.173 35.132 16.4001 38.2601C12.8823 38.3525 2.9632 42.888 0 43.7639V49.8182L16.8354 55.104C18.0615 55.1046 21.8318 53.5774 22.6055 53.1205V48.7173C24.4425 48.5142 25.608 47.7108 27.2098 47.2508C31.4167 46.0423 33.1304 51.5843 40.7783 47.0662V42.6632C47.5789 41.911 41.739 41.5168 48.5562 43.4686C51.209 44.228 53.7855 42.8624 56.2918 42.1126V37.7096C60.8398 36.3651 60.229 35.3061 65.3257 36.9492C70.0161 38.4614 70.1719 37.3425 74.4647 36.0583V31.6552L81.9458 29.2006L82 22.8491L75.7947 21.1981C73.5893 19.2984 72.7023 20.6121 71.1623 18.6943C68.8168 15.7733 70.9291 15.2975 70.9189 8.53924C69.5185 9.23874 69.9579 8.08219 70.4757 10.7407L68.2793 10.0608C69.0216 7.97423 68.7248 10.0224 66.9677 7.39122L66.5094 9.42998C66.5027 9.47116 66.4806 9.60713 66.4486 9.68708L64.2925 8.95234C60.9454 1.22987 64.2056 -1.90719 55.6739 1.16718L35.9027 6.88798C37.0503 12.7802 35.1021 10.409 32.8 12.3918L32.8003 12.3923Z" fill="#003D9A"/>
<path fill-rule="evenodd" clip-rule="evenodd" d="M26.152 14.5931C24.3107 14.6014 25.2892 14.3979 24.3792 15.1434C26.2203 15.1351 25.242 15.3386 26.152 14.5931Z" fill="#003D9A"/>
<path fill-rule="evenodd" clip-rule="evenodd" d="M17.2869 19.5466C18.2407 18.7236 17.8707 19.4661 18.1735 17.8955C17.2196 18.7185 17.5897 17.976 17.2869 19.5466Z" fill="#003D9A"/>
<path fill-rule="evenodd" clip-rule="evenodd" d="M18.6167 17.3447L18.1733 17.8951L18.6167 17.3447Z" fill="#003D9A"/>
</svg>
