<svg width="150" height="46" viewBox="0 0 150 46" fill="none" xmlns="http://www.w3.org/2000/svg">
<path d="M1.996 42.2183V33.7583H3.232V37.4543H4.816L4.516 37.6463L7.132 33.7583H8.512L5.68 37.8623L5.224 37.5023C5.744 37.5663 6.184 37.7423 6.544 38.0303C6.904 38.3183 7.216 38.7223 7.48 39.2423L8.968 42.2183H7.624L6.436 39.7583C6.212 39.2943 5.952 38.9663 5.656 38.7743C5.36 38.5823 4.988 38.4863 4.54 38.4863H3.232V42.2183H1.996ZM12.5385 42.3263C12.0025 42.3263 11.5345 42.2023 11.1345 41.9543C10.7345 41.7063 10.4225 41.3463 10.1985 40.8743C9.9825 40.4023 9.8745 39.8423 9.8745 39.1943C9.8745 38.5383 9.9825 37.9783 10.1985 37.5143C10.4225 37.0503 10.7345 36.6943 11.1345 36.4463C11.5345 36.1903 12.0025 36.0623 12.5385 36.0623C13.0665 36.0623 13.5265 36.1943 13.9185 36.4583C14.3105 36.7223 14.5705 37.0823 14.6985 37.5383H14.5665L14.6865 36.1703H15.8625C15.8385 36.4183 15.8145 36.6663 15.7905 36.9143C15.7745 37.1543 15.7665 37.3903 15.7665 37.6223V42.2183H14.5545V40.8743H14.6865C14.5585 41.3223 14.2945 41.6783 13.8945 41.9423C13.5025 42.1983 13.0505 42.3263 12.5385 42.3263ZM12.8385 41.3783C13.3585 41.3783 13.7745 41.1943 14.0865 40.8263C14.4065 40.4583 14.5665 39.9143 14.5665 39.1943C14.5665 38.4743 14.4065 37.9343 14.0865 37.5743C13.7745 37.2063 13.3585 37.0223 12.8385 37.0223C12.3105 37.0223 11.8865 37.2063 11.5665 37.5743C11.2545 37.9343 11.0985 38.4743 11.0985 39.1943C11.0985 39.9143 11.2545 40.4583 11.5665 40.8263C11.8785 41.1943 12.3025 41.3783 12.8385 41.3783ZM20.5156 42.3263C19.6036 42.3263 18.8756 42.0423 18.3316 41.4743C17.7956 40.9063 17.5276 40.0703 17.5276 38.9663V37.9223C17.5276 36.7943 17.7676 35.8863 18.2476 35.1983C18.7356 34.5103 19.4876 34.0463 20.5036 33.8063L22.7116 33.2783L23.0596 34.2503L20.5876 34.8263C20.1556 34.9223 19.7996 35.1023 19.5196 35.3663C19.2396 35.6303 19.0276 35.9423 18.8836 36.3023C18.7476 36.6623 18.6796 37.0463 18.6796 37.4543V38.0063H18.4996C18.5956 37.6383 18.7476 37.3263 18.9556 37.0703C19.1716 36.8063 19.4356 36.6023 19.7476 36.4583C20.0676 36.3063 20.4236 36.2303 20.8156 36.2303C21.3356 36.2303 21.7916 36.3503 22.1836 36.5903C22.5756 36.8303 22.8796 37.1783 23.0956 37.6343C23.3196 38.0823 23.4316 38.6143 23.4316 39.2303C23.4316 39.8703 23.3116 40.4223 23.0716 40.8863C22.8316 41.3503 22.4916 41.7063 22.0516 41.9543C21.6196 42.2023 21.1076 42.3263 20.5156 42.3263ZM20.4796 41.3903C21.0236 41.3903 21.4476 41.2143 21.7516 40.8623C22.0636 40.5023 22.2196 39.9743 22.2196 39.2783C22.2196 38.5903 22.0636 38.0663 21.7516 37.7063C21.4396 37.3463 21.0156 37.1663 20.4796 37.1663C19.9436 37.1663 19.5196 37.3463 19.2076 37.7063C18.8956 38.0583 18.7396 38.5623 18.7396 39.2183C18.7396 39.9383 18.8916 40.4823 19.1956 40.8503C19.5076 41.2103 19.9356 41.3903 20.4796 41.3903ZM25.1409 42.2183V36.1703H26.2449V41.0543H25.9089L29.5569 36.1703H30.5649V42.2183H29.4729V37.3223H29.8209L26.1489 42.2183H25.1409ZM32.5831 42.2183V36.1703H33.7831V38.6303H36.8431V36.1703H38.0431V42.2183H36.8431V39.5783H33.7831V42.2183H32.5831ZM42.9162 42.3263C41.9402 42.3263 41.1722 42.0503 40.6122 41.4983C40.0522 40.9463 39.7722 40.1823 39.7722 39.2063C39.7722 38.5743 39.8922 38.0223 40.1322 37.5503C40.3802 37.0783 40.7202 36.7143 41.1522 36.4583C41.5922 36.1943 42.1002 36.0623 42.6762 36.0623C43.2442 36.0623 43.7202 36.1823 44.1042 36.4223C44.4882 36.6623 44.7802 37.0023 44.9802 37.4423C45.1802 37.8743 45.2802 38.3863 45.2802 38.9783V39.3623H40.7202V38.6663H44.4522L44.2482 38.8223C44.2482 38.2223 44.1122 37.7583 43.8402 37.4303C43.5762 37.0943 43.1922 36.9263 42.6882 36.9263C42.1282 36.9263 41.6962 37.1223 41.3922 37.5143C41.0882 37.8983 40.9362 38.4303 40.9362 39.1103V39.2303C40.9362 39.9423 41.1082 40.4783 41.4522 40.8383C41.8042 41.1983 42.3002 41.3783 42.9402 41.3783C43.2922 41.3783 43.6202 41.3303 43.9242 41.2343C44.2362 41.1303 44.5322 40.9623 44.8122 40.7303L45.2082 41.5583C44.9282 41.8063 44.5882 41.9983 44.1882 42.1343C43.7882 42.2623 43.3642 42.3263 42.9162 42.3263ZM48.2596 42.2183V37.1423H46.1236V36.1703H51.6076V37.1423H49.4596V42.2183H48.2596ZM55.5761 43.7783V41.2823H56.2481C56.5121 40.8823 56.7041 40.4143 56.8241 39.8783C56.9441 39.3423 57.0041 38.6943 57.0041 37.9343V36.1703H61.4321V41.2823H62.4041V43.7783H61.3601V42.2183H56.6201V43.7783H55.5761ZM57.3641 41.2943H60.2921V37.1063H58.0481V38.1743C58.0481 38.7583 57.9881 39.3303 57.8681 39.8903C57.7561 40.4423 57.5881 40.9103 57.3641 41.2943ZM63.8057 42.2183V36.1703H64.9097V41.0543H64.5737L68.2217 36.1703H69.2297V42.2183H68.1377V37.3223H68.4857L64.8137 42.2183H63.8057ZM70.9959 42.3743L70.5879 41.4143C70.8599 41.3023 71.0879 41.1623 71.2719 40.9943C71.4639 40.8183 71.6119 40.5943 71.7159 40.3223C71.8279 40.0503 71.9079 39.7143 71.9559 39.3143C72.0039 38.9143 72.0279 38.4303 72.0279 37.8623V36.1703H76.5879V42.2183H75.3879V37.1183H73.1439V37.8983C73.1439 38.8103 73.0719 39.5663 72.9279 40.1663C72.7839 40.7663 72.5519 41.2423 72.2319 41.5943C71.9199 41.9383 71.5079 42.1983 70.9959 42.3743ZM81.4521 42.3263C80.4761 42.3263 79.7081 42.0503 79.1481 41.4983C78.5881 40.9463 78.3081 40.1823 78.3081 39.2063C78.3081 38.5743 78.4281 38.0223 78.6681 37.5503C78.9161 37.0783 79.2561 36.7143 79.6881 36.4583C80.1281 36.1943 80.6361 36.0623 81.2121 36.0623C81.7801 36.0623 82.2561 36.1823 82.6401 36.4223C83.0241 36.6623 83.3161 37.0023 83.5161 37.4423C83.7161 37.8743 83.8161 38.3863 83.8161 38.9783V39.3623H79.2561V38.6663H82.9881L82.7841 38.8223C82.7841 38.2223 82.6481 37.7583 82.3761 37.4303C82.1121 37.0943 81.7281 36.9263 81.2241 36.9263C80.6641 36.9263 80.2321 37.1223 79.9281 37.5143C79.6241 37.8983 79.4721 38.4303 79.4721 39.1103V39.2303C79.4721 39.9423 79.6441 40.4783 79.9881 40.8383C80.3401 41.1983 80.8361 41.3783 81.4761 41.3783C81.8281 41.3783 82.1561 41.3303 82.4601 41.2343C82.7721 41.1303 83.0681 40.9623 83.3481 40.7303L83.7441 41.5583C83.4641 41.8063 83.1241 41.9983 82.7241 42.1343C82.3241 42.2623 81.9001 42.3263 81.4521 42.3263ZM85.5475 44.8103V37.6223C85.5475 37.3903 85.5355 37.1543 85.5115 36.9143C85.4955 36.6663 85.4755 36.4183 85.4515 36.1703H86.6275L86.7475 37.5383H86.6155C86.7435 37.0823 86.9995 36.7223 87.3835 36.4583C87.7755 36.1943 88.2395 36.0623 88.7755 36.0623C89.3115 36.0623 89.7795 36.1903 90.1795 36.4463C90.5795 36.6943 90.8875 37.0503 91.1035 37.5143C91.3275 37.9783 91.4395 38.5383 91.4395 39.1943C91.4395 39.8423 91.3275 40.4023 91.1035 40.8743C90.8875 41.3463 90.5795 41.7063 90.1795 41.9543C89.7795 42.2023 89.3115 42.3263 88.7755 42.3263C88.2475 42.3263 87.7875 42.1983 87.3955 41.9423C87.0115 41.6783 86.7555 41.3223 86.6275 40.8743H86.7595V44.8103H85.5475ZM88.4755 41.3783C89.0035 41.3783 89.4235 41.1943 89.7355 40.8263C90.0555 40.4583 90.2155 39.9143 90.2155 39.1943C90.2155 38.4743 90.0555 37.9343 89.7355 37.5743C89.4235 37.2063 89.0035 37.0223 88.4755 37.0223C87.9475 37.0223 87.5235 37.2063 87.2035 37.5743C86.8915 37.9343 86.7355 38.4743 86.7355 39.1943C86.7355 39.9143 86.8915 40.4583 87.2035 40.8263C87.5235 41.1943 87.9475 41.3783 88.4755 41.3783ZM95.5166 42.3263C94.9806 42.3263 94.5126 42.2023 94.1126 41.9543C93.7126 41.7063 93.4006 41.3463 93.1766 40.8743C92.9606 40.4023 92.8526 39.8423 92.8526 39.1943C92.8526 38.5383 92.9606 37.9783 93.1766 37.5143C93.4006 37.0503 93.7126 36.6943 94.1126 36.4463C94.5126 36.1903 94.9806 36.0623 95.5166 36.0623C96.0446 36.0623 96.5046 36.1943 96.8966 36.4583C97.2886 36.7223 97.5486 37.0823 97.6766 37.5383H97.5446L97.6646 36.1703H98.8406C98.8166 36.4183 98.7926 36.6663 98.7686 36.9143C98.7526 37.1543 98.7446 37.3903 98.7446 37.6223V42.2183H97.5326V40.8743H97.6646C97.5366 41.3223 97.2726 41.6783 96.8726 41.9423C96.4806 42.1983 96.0286 42.3263 95.5166 42.3263ZM95.8166 41.3783C96.3366 41.3783 96.7526 41.1943 97.0646 40.8263C97.3846 40.4583 97.5446 39.9143 97.5446 39.1943C97.5446 38.4743 97.3846 37.9343 97.0646 37.5743C96.7526 37.2063 96.3366 37.0223 95.8166 37.0223C95.2886 37.0223 94.8646 37.2063 94.5446 37.5743C94.2326 37.9343 94.0766 38.4743 94.0766 39.1943C94.0766 39.9143 94.2326 40.4583 94.5446 40.8263C94.8566 41.1943 95.2806 41.3783 95.8166 41.3783Z" fill="white"/>
<path fill-rule="evenodd" clip-rule="evenodd" d="M46.2284 1.05347H26.501V24.9623H45.8144V18.6635H33.5365V15.2838H44.0902V10.2484H33.1228V6.45465H46.2284V1.05347Z" fill="white" stroke="#2B2A29" stroke-width="0.2" stroke-miterlimit="22.9256"/>
<path fill-rule="evenodd" clip-rule="evenodd" d="M68.025 1.05347H47.8838V6.45465H54.2986V24.9623H61.4032V6.31674H68.025V1.05347Z" fill="white" stroke="#2B2A29" stroke-width="0.2" stroke-miterlimit="22.9256"/>
<path fill-rule="evenodd" clip-rule="evenodd" d="M102.756 15.4569L99.997 9.38702L97.583 15.4569H102.756ZM93.9271 24.9623H86.8914L97.031 1.05347H102.756L113.724 24.9623H106.343L104.618 20.6302H96.1345L93.9271 24.9623Z" fill="white" stroke="#2B2A29" stroke-width="0.2" stroke-miterlimit="22.9256"/>
<path fill-rule="evenodd" clip-rule="evenodd" d="M138.257 7.5363C137.59 7.91562 136.969 8.58223 136.521 9.43315C136.072 10.2838 135.796 11.3183 135.773 12.3415C135.75 13.3648 135.98 14.3763 136.199 15.204C136.417 16.0317 136.624 16.6757 137.003 17.147C137.383 17.6184 137.934 17.9171 138.475 18.1356C139.015 18.3541 139.544 18.492 140.222 18.4114C140.901 18.3308 141.728 18.0321 142.384 17.3538C143.039 16.6754 143.522 15.618 143.717 14.4683C143.913 13.3186 143.821 12.0772 143.579 11.0539C143.338 10.0307 142.947 9.22616 142.384 8.58249C141.82 7.93856 141.084 7.45549 140.36 7.26022C139.636 7.0647 138.923 7.15672 138.257 7.5363V7.5363ZM141.659 1.05347C142.602 1.41714 143.545 1.78056 144.396 2.20393C145.246 2.62705 146.005 3.11012 146.766 3.74232C147.526 4.37452 148.289 5.15636 148.83 6.00703C149.37 6.85769 149.688 7.77745 149.858 9.15707C150.029 10.5367 150.052 12.3759 149.893 14.0314C149.734 15.6868 149.393 17.1585 148.898 18.3541C148.404 19.5496 147.756 20.4691 146.996 21.343C146.235 22.2166 145.361 23.0443 144.625 23.5618C143.89 24.079 143.292 24.286 142.648 24.4678C142.004 24.6495 141.315 24.8059 140.625 24.9623L141.659 1.05347V1.05347ZM140.625 24.9623H116.552V18.492H128.554L120.828 12.353L128.554 6.83475H116.69V1.05347H141.659L140.625 24.9623Z" fill="white"/>
<path fill-rule="evenodd" clip-rule="evenodd" d="M6.622 24.9623H1V1.05347H6.76018L12.3473 10.4137L17.762 1.05347H24.8666V24.9623H18.0725V12.0691L12.5542 20.4498L6.622 12.1382V24.9623Z" fill="white" stroke="#2B2A29" stroke-width="0.2" stroke-miterlimit="22.9256"/>
<path fill-rule="evenodd" clip-rule="evenodd" d="M79.3452 17.9308C79.7274 17.9034 80.1096 17.8763 80.594 17.8484C81.0781 17.8202 81.6644 17.7915 82.2679 17.7112C82.8715 17.6307 83.4924 17.4983 84.1593 17.1909C84.8259 16.8833 85.5387 16.4004 86.3062 15.8342C87.0734 15.268 87.8957 14.6185 88.4246 13.9316C88.9533 13.2447 89.189 12.5204 89.3645 11.4484C89.5396 10.3764 89.6546 8.95641 89.5915 7.94776C89.5282 6.93885 89.2865 6.34104 89.0279 5.83815C88.7693 5.335 88.4932 4.92701 87.9932 4.40692C87.4931 3.88656 86.7689 3.25409 85.9816 2.73686C85.194 2.21963 84.3431 1.81711 83.3532 1.55589C82.3631 1.29441 81.2335 1.17397 80.1041 1.05353C78.9748 0.933087 69.7671 1.05353 69.7671 1.05353V24.9624H76.6647L76.5959 17.8147L79.3452 17.9308V17.9308ZM76.6616 7.55253C76.6097 8.58126 76.6097 10.6163 76.6386 11.6739C76.6673 12.7316 76.7247 12.8119 76.8167 12.8753C76.9087 12.9383 77.0351 12.9845 77.5195 12.9993C78.0039 13.0139 78.846 12.9975 79.5243 12.9574C80.2027 12.9169 80.717 12.8531 81.2444 12.6659C81.7718 12.4785 82.312 12.1682 82.6916 11.6969C83.0709 11.2255 83.2891 10.5931 83.3467 10.0125C83.4041 9.43191 83.3006 8.90322 83.134 8.42041C82.9671 7.93733 82.7374 7.50065 82.3696 7.16148C82.0018 6.82231 81.4957 6.58089 80.99 6.48313C80.4842 6.38536 79.9782 6.43151 79.438 6.44298C78.8976 6.45445 78.3227 6.43152 77.8975 6.43152C77.4721 6.43152 77.196 6.45446 77.0065 6.4774C76.8167 6.50034 76.7132 6.52355 76.6616 7.55253V7.55253Z" fill="white"/>
<path fill-rule="evenodd" clip-rule="evenodd" d="M79.3452 17.9308C79.7274 17.9034 80.1096 17.8763 80.594 17.8484C81.0781 17.8202 81.6644 17.7915 82.2679 17.7112C82.8715 17.6307 83.4924 17.4983 84.1593 17.1909C84.8259 16.8833 85.5387 16.4004 86.3062 15.8342C87.0734 15.268 87.8957 14.6185 88.4246 13.9316C88.9533 13.2447 89.189 12.5204 89.3645 11.4484C89.5396 10.3764 89.6546 8.95641 89.5915 7.94776C89.5282 6.93885 89.2865 6.34104 89.0279 5.83815C88.7693 5.335 88.4932 4.92701 87.9932 4.40692C87.4931 3.88656 86.7689 3.25409 85.9816 2.73686C85.194 2.21963 84.3431 1.81711 83.3532 1.55589C82.3631 1.29441 81.2335 1.17397 80.1041 1.05353C78.9748 0.933087 69.7671 1.05353 69.7671 1.05353V24.9624H76.6647L76.5959 17.8147L79.3452 17.9308V17.9308ZM76.6616 7.55253C76.6097 8.58126 76.6097 10.6163 76.6386 11.6739C76.6673 12.7316 76.7247 12.8119 76.8167 12.8753C76.9087 12.9383 77.0351 12.9845 77.5195 12.9993C78.0039 13.0139 78.846 12.9975 79.5243 12.9574C80.2027 12.9169 80.717 12.8531 81.2444 12.6659C81.7718 12.4785 82.312 12.1682 82.6916 11.6969C83.0709 11.2255 83.2891 10.5931 83.3467 10.0125C83.4041 9.43191 83.3006 8.90322 83.134 8.42041C82.9671 7.93733 82.7374 7.50065 82.3696 7.16148C82.0018 6.82231 81.4957 6.58089 80.99 6.48313C80.4842 6.38536 79.9782 6.43151 79.438 6.44298C78.8976 6.45445 78.3227 6.43152 77.8975 6.43152C77.4721 6.43152 77.196 6.45446 77.0065 6.4774C76.8167 6.50034 76.7132 6.52355 76.6616 7.55253V7.55253Z" stroke="#2B2A29" stroke-width="0.2" stroke-miterlimit="22.9256"/>
</svg>
