<svg width="27" height="27" viewBox="0 0 27 27" fill="none" xmlns="http://www.w3.org/2000/svg">
<path d="M3.91637 21.3555C6.8017 19.7246 10.0607 18.87 13.375 18.875C16.8125 18.875 20.0396 19.7756 22.8336 21.3555M17.5 10.625C17.5 11.719 17.0654 12.7682 16.2918 13.5418C15.5182 14.3154 14.469 14.75 13.375 14.75C12.281 14.75 11.2318 14.3154 10.4582 13.5418C9.6846 12.7682 9.25 11.719 9.25 10.625C9.25 9.53098 9.6846 8.48177 10.4582 7.70818C11.2318 6.9346 12.281 6.5 13.375 6.5C14.469 6.5 15.5182 6.9346 16.2918 7.70818C17.0654 8.48177 17.5 9.53098 17.5 10.625ZM25.75 13.375C25.75 15.0001 25.4299 16.6093 24.808 18.1107C24.1861 19.6121 23.2746 20.9763 22.1254 22.1254C20.9763 23.2746 19.6121 24.1861 18.1107 24.808C16.6093 25.4299 15.0001 25.75 13.375 25.75C11.7499 25.75 10.1407 25.4299 8.63929 24.808C7.13789 24.1861 5.77368 23.2746 4.62455 22.1254C3.47543 20.9763 2.56389 19.6121 1.94199 18.1107C1.32009 16.6093 1 15.0001 1 13.375C1 10.0929 2.30379 6.94532 4.62455 4.62455C6.94532 2.30379 10.0929 1 13.375 1C16.6571 1 19.8047 2.30379 22.1254 4.62455C24.4462 6.94532 25.75 10.0929 25.75 13.375Z" stroke="#2F80ED" stroke-width="2" stroke-linecap="round" stroke-linejoin="round"/>
</svg>
