<svg width="75" height="75" viewBox="0 0 75 75" fill="none" xmlns="http://www.w3.org/2000/svg">
<path d="M9.37495 0H49.2022L70.3123 21.0282V70.3125C70.3123 72.9023 68.2125 75 65.6249 75H9.37495C6.78738 75 4.6875 72.9023 4.6875 70.3125V4.68745C4.6875 2.0977 6.78763 0 9.37495 0Z" fill="#E2574C"/>
<path d="M70.2445 21.0937H53.9062C51.3186 21.0937 49.2188 18.9939 49.2188 16.4063V0.046875L70.2445 21.0937Z" fill="#B53629"/>
<path d="M52.7297 35.538C53.5149 35.538 53.8993 34.8536 53.8993 34.1904C53.8993 33.5036 53.4984 32.8403 52.7297 32.8403H48.2578C47.3836 32.8403 46.8961 33.5645 46.8961 34.3638V45.3535C46.8961 46.3333 47.4539 46.877 48.2086 46.877C48.9587 46.877 49.5189 46.3333 49.5189 45.3535V42.3372H52.2236C53.0626 42.3372 53.4822 41.6504 53.4822 40.9685C53.4822 40.3006 53.0626 39.6371 52.2236 39.6371H49.5189V35.538H52.7297ZM37.6148 32.8403H34.3429C33.4546 32.8403 32.8241 33.4498 32.8241 34.3543V45.363C32.8241 46.4856 33.731 46.8372 34.3802 46.8372H37.8139C41.8779 46.8372 44.5615 44.1631 44.5615 40.0356C44.5593 35.6716 42.0329 32.8403 37.6148 32.8403ZM37.772 44.1233H35.7773V35.5545H37.5751C40.2962 35.5545 41.4797 37.3803 41.4797 39.8998C41.4797 42.2577 40.3171 44.1233 37.772 44.1233ZM25.786 32.8403H22.5446C21.6282 32.8403 21.1172 33.4449 21.1172 34.3638V45.3535C21.1172 46.3333 21.7031 46.877 22.4905 46.877C23.2779 46.877 23.8638 46.3333 23.8638 45.3535V42.1449H25.8958C28.4036 42.1449 30.4732 40.3683 30.4732 37.5113C30.4734 34.7154 28.4766 32.8403 25.786 32.8403ZM25.7321 39.567H23.8641V35.4209H25.7321C26.8853 35.4209 27.6189 36.3208 27.6189 37.495C27.6164 38.6671 26.8853 39.567 25.7321 39.567Z" fill="white"/>
</svg>
