<svg width="74" height="64" viewBox="0 0 74 64" fill="none" xmlns="http://www.w3.org/2000/svg">
<path d="M66.0714 0H7.92857C3.54975 0 0 3.54975 0 7.92857V55.5C0 59.8789 3.54975 63.4286 7.92857 63.4286H66.0714C70.4504 63.4286 74 59.8789 74 55.5V7.92857C74 3.54975 70.4504 0 66.0714 0Z" fill="#B71C1C"/>
<path d="M60.7856 52.857H13.2141C12.5132 52.857 11.841 52.5784 11.3454 52.0829C10.8497 51.5874 10.5713 50.915 10.5713 50.2141C10.5713 49.5133 10.8497 48.8409 11.3454 48.3454C11.841 47.8498 12.5132 47.5713 13.2141 47.5713H60.7856C61.4865 47.5713 62.1588 47.8498 62.6543 48.3454C63.1499 48.8409 63.4284 49.5133 63.4284 50.2141C63.4284 50.915 63.1499 51.5874 62.6543 52.0829C62.1588 52.5784 61.4865 52.857 60.7856 52.857Z" fill="#EEEEEE"/>
<path d="M44.9285 55.5001C44.2276 55.5001 43.5553 55.2216 43.0597 54.726C42.5642 54.2305 42.2856 53.5582 42.2856 52.8573V47.5716C42.2856 46.8707 42.5642 46.1983 43.0597 45.7028C43.5553 45.2073 44.2276 44.9287 44.9285 44.9287C45.6294 44.9287 46.3017 45.2073 46.7973 45.7028C47.2928 46.1983 47.5714 46.8707 47.5714 47.5716V52.8573C47.5714 53.5582 47.2928 54.2305 46.7973 54.726C46.3017 55.2216 45.6294 55.5001 44.9285 55.5001Z" fill="#EEEEEE"/>
<path d="M48.7609 22.9137L30.2609 13.6636C29.8586 13.4608 29.4112 13.3643 28.9608 13.3832C28.5108 13.402 28.0731 13.5356 27.6891 13.7713C27.3051 14.007 26.9877 14.3369 26.7673 14.7297C26.5466 15.1225 26.43 15.5652 26.4287 16.0158V36.8415C26.4321 37.3125 26.5614 37.7739 26.8029 38.178C27.0445 38.5824 27.3899 38.9146 27.803 39.1408C28.1857 39.3708 28.6249 39.4897 29.0716 39.4844C29.5663 39.486 30.0518 39.3486 30.4723 39.088L48.9723 27.5123C49.3729 27.2628 49.6993 26.9105 49.9176 26.4921C50.1362 26.074 50.2385 25.6049 50.2144 25.1337C50.1893 24.6683 50.0418 24.2179 49.7865 23.8278C49.5312 23.438 49.1774 23.1227 48.7609 22.9137Z" fill="#EEEEEE"/>
<path d="M7.92857 0C5.82578 0 3.80912 0.835329 2.32223 2.32223C0.835328 3.80912 0 5.82578 0 7.92857V55.5C0 57.6027 0.835328 59.6194 2.32223 61.1063C3.80912 62.5932 5.82578 63.4286 7.92857 63.4286H37V0H7.92857Z" fill="#E53935"/>
<path d="M13.2141 47.5713C12.5132 47.5713 11.841 47.8498 11.3454 48.3454C10.8497 48.8409 10.5713 49.5133 10.5713 50.2141C10.5713 50.915 10.8497 51.5874 11.3454 52.0829C11.841 52.5784 12.5132 52.857 13.2141 52.857H36.9999V47.5713H13.2141Z" fill="#FAFAFA"/>
<path d="M30.2609 13.6636C29.8586 13.4608 29.4112 13.3643 28.9608 13.3832C28.5108 13.402 28.0731 13.5356 27.6891 13.7713C27.3051 14.007 26.9877 14.3369 26.7673 14.7297C26.5466 15.1225 26.43 15.5652 26.4287 16.0158V36.8415C26.4321 37.3125 26.5614 37.7739 26.8029 38.178C27.0445 38.5824 27.3899 38.9146 27.803 39.1408C28.1857 39.3708 28.6249 39.4897 29.0716 39.4844C29.5663 39.486 30.0518 39.3486 30.4723 39.088L37.0001 34.9915V17.0201L30.2609 13.6636Z" fill="#FFEBEE"/>
</svg>
